<?xml version="1.0" encoding="UTF-8" standalone="no"?>
<svg xmlns:rdf="http://www.w3.org/1999/02/22-rdf-syntax-ns#" xmlns="http://www.w3.org/2000/svg" height="105mm" width="105mm" version="1.1" xmlns:cc="http://creativecommons.org/ns#" xmlns:dc="http://purl.org/dc/elements/1.1/" viewBox="0 0 372.82402 372.82402">
<g transform="translate(-238 -271)">
<circle cx="424" cy="457" r="169" fill="#f00"/>
<g fill="#fff" transform="rotate(-30)">
<path d="m72.6 673h-16.8v-62.2h-39.8v62.2h-16.8v-135h16.8v58.7h39.8v-58.7h16.8v135z"/>
<path d="m142 673h-43.8v-14.1h13.5v-107h-13.5v-14.1h43.8v14.1h-13.5v107h13.5v14.1z"/>
<path d="m234 590q0 30.5-32.8 30.5h-18.2v52.5h-16.8v-135h34.6q33.2 0 33.2 30.1v22zm-16.8 1.93v-25.7q0-7.34-3.48-10.6-3.28-3.28-10.6-3.28h-20.1v53.7h20.1q7.34 0 10.6-3.28 3.48-3.48 3.48-10.8z"/>
<path d="m279 673h-19.3v-19.3h19.3v19.3zm-1.54-40.2h-16.4v-95h16.4v95z"/>
</g>
</g>
</svg>
