<?xml version="1.0" encoding="UTF-8" standalone="no"?>
<!-- Created with Inkscape (http://www.inkscape.org/) -->

<svg
   xmlns:dc="http://purl.org/dc/elements/1.1/"
   xmlns:cc="http://creativecommons.org/ns#"
   xmlns:rdf="http://www.w3.org/1999/02/22-rdf-syntax-ns#"
   xmlns:svg="http://www.w3.org/2000/svg"
   xmlns="http://www.w3.org/2000/svg"
   xmlns:sodipodi="http://sodipodi.sourceforge.net/DTD/sodipodi-0.dtd"
   xmlns:inkscape="http://www.inkscape.org/namespaces/inkscape"
   width="105.21922mm"
   height="105.21922mm"
   viewBox="0 0 372.82402 372.82402"
   id="svg2"
   version="1.1"
   inkscape:version="0.91 r13725"
   inkscape:export-filename="/home/gidsi/hip_logo.png"
   inkscape:export-xdpi="300.89722"
   inkscape:export-ydpi="300.89722"
   sodipodi:docname="hip_logo.svg">
  <defs
     id="defs4" />
  <sodipodi:namedview
     id="base"
     pagecolor="#000000"
     bordercolor="#666666"
     borderopacity="1.0"
     inkscape:pageopacity="0"
     inkscape:pageshadow="2"
     inkscape:zoom="1.4"
     inkscape:cx="291.6305"
     inkscape:cy="166.06335"
     inkscape:document-units="px"
     inkscape:current-layer="layer1"
     showgrid="false"
     fit-margin-top="5"
     fit-margin-left="5"
     fit-margin-right="5"
     fit-margin-bottom="5"
     inkscape:window-width="3196"
     inkscape:window-height="1737"
     inkscape:window-x="0"
     inkscape:window-y="30"
     inkscape:window-maximized="0" />
  <metadata
     id="metadata7">
    <rdf:RDF>
      <cc:Work
         rdf:about="">
        <dc:format>image/svg+xml</dc:format>
        <dc:type
           rdf:resource="http://purl.org/dc/dcmitype/StillImage" />
        <dc:title />
      </cc:Work>
    </rdf:RDF>
  </metadata>
  <g
     inkscape:label="Layer 1"
     inkscape:groupmode="layer"
     id="layer1"
     transform="translate(-237.85205,-270.97034)">
    <circle
       style="opacity:1;fill:#ff0000;fill-opacity:1;stroke:none;stroke-width:10;stroke-miterlimit:4;stroke-dasharray:none;stroke-opacity:1"
       id="path4136"
       cx="424.26407"
       cy="457.38235"
       r="168.69548" />
    <g
       transform="matrix(0.8660254,-0.5,0.5,0.8660254,0,0)"
       style="font-style:normal;font-weight:normal;font-size:193.10316467px;line-height:125%;font-family:Sans;letter-spacing:0px;word-spacing:0px;fill:#000000;fill-opacity:1;stroke:none;stroke-width:1px;stroke-linecap:butt;stroke-linejoin:miter;stroke-opacity:1"
       id="text4138">
      <path
         d="m 72.633166,673.43347 -16.799975,0 0,-62.17922 -39.779252,0 0,62.17922 -16.7999753,0 0,-135.17221 16.7999753,0 0,58.70336 39.779252,0 0,-58.70336 16.799975,0 0,135.17221 z"
         style="font-style:normal;font-variant:normal;font-weight:normal;font-stretch:normal;font-family:'Share Tech';-inkscape-font-specification:'Share Tech';fill:#ffffff;fill-opacity:1"
         id="path4360" />
      <path
         d="m 141.72186,673.43347 -43.834418,0 0,-14.09653 13.517218,0 0,-106.97915 -13.517218,0 0,-14.09653 43.834418,0 0,14.09653 -13.51722,0 0,106.97915 13.51722,0 0,14.09653 z"
         style="font-style:normal;font-variant:normal;font-weight:normal;font-stretch:normal;font-family:'Share Tech';-inkscape-font-specification:'Share Tech';fill:#ffffff;fill-opacity:1"
         id="path4362" />
      <path
         d="m 234.48982,590.39911 q 0,30.5103 -32.82753,30.5103 l -18.1517,0 0,52.52406 -16.79998,0 0,-135.17221 34.56547,0 q 33.21374,0 33.21374,30.12409 l 0,22.01376 z m -16.79997,1.93103 0,-25.68272 q 0,-7.33792 -3.47586,-10.62067 -3.28275,-3.28276 -10.62067,-3.28276 l -20.08273,0 0,53.68268 20.08273,0 q 7.33792,0 10.62067,-3.28275 3.47586,-3.47586 3.47586,-10.81378 z"
         style="font-style:normal;font-variant:normal;font-weight:normal;font-stretch:normal;font-family:'Share Tech';-inkscape-font-specification:'Share Tech';fill:#ffffff;fill-opacity:1"
         id="path4364" />
      <path
         d="m 278.75572,673.43347 -19.31032,0 0,-19.31031 19.31032,0 0,19.31031 z m -1.54483,-40.16546 -16.41377,0 0,-95.00675 16.41377,0 0,95.00675 z"
         style="font-style:normal;font-variant:normal;font-weight:normal;font-stretch:normal;font-family:'Share Tech';-inkscape-font-specification:'Share Tech';fill:#ffffff;fill-opacity:1"
         id="path4366" />
    </g>
  </g>
</svg>
