<?xml version="1.0" encoding="UTF-8" standalone="no"?>
<svg xmlns:rdf="http://www.w3.org/1999/02/22-rdf-syntax-ns#" xmlns="http://www.w3.org/2000/svg" height="155mm" width="185mm" version="1.1" xmlns:cc="http://creativecommons.org/ns#" xmlns:dc="http://purl.org/dc/elements/1.1/" viewBox="0 0 655.8633 548.46816">
<defs>
<clipPath id="c" clipPathUnits="userSpaceOnUse">
<path d="m0 283h283v-283h-283v283z"/>
</clipPath>
<clipPath id="b" clipPathUnits="userSpaceOnUse">
<path d="m0 283h283v-283h-283v283z"/>
</clipPath>
<clipPath id="a" clipPathUnits="userSpaceOnUse">
<path d="m0 283h283v-283h-283v283z"/>
</clipPath>
</defs>
<g fill-opacity=".0196" transform="translate(-.166 .122)" fill="#fff">
<path d="m77.2 179c-4.31-2.09-6.77-6.29-6.12-10.5 0.712-4.6 3.15-7.54 8.01-9.68 2.32-1.02 3.46-1.24 6.26-1.24 1.88-0.00018 3.43-0.156 3.43-0.346s-0.744-0.591-1.65-0.892c-0.91-0.301-1.64-0.777-1.63-1.06 0.0155-0.282 2.84-4.3 6.27-8.94l6.24-8.43 11-0.116c6.03-0.0638 11-0.0293 11 0.0768s-1.54 2.33-3.43 4.95c-6.36 8.83-11.5 16.2-11.6 16.8-0.0942 0.356 0.115 0.483 0.548 0.331 1.37-0.481 3.5 1.01 4.35 3.05 1.48 3.54 0.0613 7.88-3.41 10.4-3.07 2.26-5.81 3.3-9.19 3.53-4.03 0.265-5.14-0.538-5.14-3.74 0-1.32-0.258-2.3-0.688-2.63-0.994-0.754-1.67-0.174-1.67 1.43 0 2.34-2.01 4.42-5.94 6.14-3.31 1.45-4.9 1.65-6.59 0.833zm83.6-0.59c-1.04-0.439-2.4-1.3-3.02-1.92l-1.14-1.13 1.25-1.65c1.19-1.56 1.59-2.69 0.974-2.69-0.154 0-1.16 0.687-2.23 1.53-4.47 3.5-10.6 5.11-15.1 3.93-3.83-1.02-6.7-2.88-7.88-5.11-2.02-3.82-0.954-7.29 3.58-11.7 2.64-2.54 2.68-2.62 1.31-2.4-0.78 0.129-1.84 0.345-2.36 0.481-0.813 0.213-1.83-1.11-7.32-9.52-3.51-5.37-6.45-9.94-6.54-10.1-0.088-0.212 5.26-0.38 12.1-0.38h12.3l4.43 5.51c2.44 3.03 5.44 6.82 6.68 8.43 1.24 1.6 2.5 2.92 2.81 2.92 1.46 0 6.76 2.79 9.04 4.76 3.47 3 4.71 5.66 4.72 10.1 0.009 3.77-0.439 4.9-2.66 6.66-3.81 3.03-7.4 3.76-11 2.24zm-132-2c-6.56-2.47-12.1-8.17-13.9-14.3-0.89-3.06-0.804-4.09 0.577-6.95 1.71-3.53 3.52-5.45 7.31-7.76 3.08-1.87 3.88-2.84 2.85-3.42-0.24-0.136-1.23 0.181-2.2 0.704l-1.76 0.951-1.53-1.67c-1.84-2.01-2.58-4.06-2.58-7.23 0-6.66 4.25-11.3 12.7-14 4.91-1.53 7.34-1.73 10.8-0.911 4.69 1.1 7.33 3.1 9.36 7.09 1.01 1.98 1.14 2.78 1 5.9l-0.165 3.61 6.14-0.171c20.4-0.567 27.7-0.552 27.6 0.0555-0.164 0.679-13.3 18.8-14.8 20.4-0.932 0.995-1.08 1.01-10.9 1.05l-9.91 0.0373-2.08-2.01c-2.46-2.38-3.63-2.1-1.76 0.423 1.5 2.02 2.16 4.13 2.16 6.95 0.002 1.74-0.341 2.71-1.68 4.75-2.17 3.31-3.67 4.74-6.58 6.28-3.08 1.63-6.79 1.7-10.8 0.21zm176-3.74c-4.53-0.717-8.71-3.32-10.6-6.62-0.863-1.48-1.04-2.52-1.09-6.31-0.0285-2.5-0.241-4.62-0.473-4.71-0.402-0.169-1.76 1.93-2.27 3.53-0.219 0.678-1 0.756-7.56 0.756h-7.31l-8.32-10.9-8.32-10.9 11.5-0.265c6.32-0.146 13.8-0.291 16.6-0.324 4.86-0.057 5.08-0.1 5.28-1.03 1.08-5.1 1.52-6.49 2.8-8.7 1.9-3.29 5.09-6.18 8.36-7.57 2.26-0.965 3.24-1.11 7.56-1.12 4.59-0.007 5.19 0.0932 8.09 1.35 4.03 1.75 6.69 3.96 8.25 6.9 1.14 2.13 1.23 2.68 1.03 6.12-0.277 4.65-1.45 7.59-4.9 12.3-1.4 1.91-2.55 3.65-2.55 3.85 0 0.698 0.775 0.359 2.13-0.93 0.747-0.713 1.61-1.3 1.92-1.3 0.826 0 3.97 3.32 4.74 5 0.39 0.853 0.663 2.94 0.663 5.07 0 3.16-0.18 3.95-1.43 6.24-1.64 3-4.55 5.64-7.86 7.15-4.71 2.14-11.5 3.17-16.1 2.44zm-95.7-38.4c-1.36-0.632-2.09-0.738-2.97-0.432-2.59 0.899-10.9 0.17-13.6-1.19-0.697-0.357-1.46-0.227-3.39 0.583-1.75 0.733-2.89 0.956-3.83 0.75-1.83-0.402-3.97-1.4-5.19-2.42-1.02-0.852-1.03-0.852-2.43 0.0988-1.28 0.865-1.58 0.903-3.23 0.414-2.69-0.796-5.62-2.46-7.16-4.06-1.06-1.1-1.49-2.16-1.94-4.73-0.523-2.97-0.725-3.38-1.95-3.95-9.7-4.59-28.3-20.7-36-31.2-5.7-7.78-10.6-17.8-15-30.6-0.815-2.38-1.69-4.9-1.95-5.62-1.42-3.88-3.31-16.6-3.92-26.4-0.357-5.7-0.55-10.5-0.429-10.6 0.121-0.113 6.39-0.281 13.9-0.373l13.7-0.168-0.321 4.91c-0.353 5.41 0.215 11.4 1.73 18.3 1 4.54 5.74 18.2 6.75 19.5 0.501 0.627 0.721-0.0188 1.42-4.16 1.04-6.2 2.55-10.6 5.73-16.6 5.22-9.89 12.5-17.2 23.1-23.1 13.2-7.39 31.6-10.4 45.4-7.36 12.6 2.77 22.5 8.24 34 18.8 9 8.24 14.3 16.1 18 26.6 0.994 2.84 2.01 5.1 2.26 5.03 0.25-0.073 0.7-1.29 0.999-2.69 0.3-1.41 0.89-3.71 1.31-5.12 2.48-8.26 3.08-22.2 1.29-30-0.563-2.47-0.911-4.59-0.772-4.71 0.139-0.127 12.4-0.324 27.2-0.439l26.9-0.209v4.06c-0.003 20.1-7.49 44.8-18.9 62.3-8.91 13.7-18.2 24.2-28.3 31.9-7.46 5.7-12.1 8.18-25.7 13.7-5.06 2.08-5.55 2.38-5.85 3.63-0.601 2.5-1.73 4.12-3.18 4.59-2.3 0.734-6.3 0.543-8.32-0.399l-1.82-0.848-1.28 1.01c-2.17 1.7-7.19 1.87-10.5 0.347-1.39-0.639-1.58-0.64-2.36-0.006-2.2 1.79-10.4 2.27-13.6 0.804zm10.9-3.65c1.15-0.905 1.33-1.39 1.49-4.07 0.257-4.16-1.25-8.43-3.39-9.63-1.85-1.03-4.29-1.06-6.45-0.0742l-1.65 0.756-0.236 6.57-0.236 6.57 1.65 0.404c0.91 0.222 2.97 0.424 4.58 0.449 2.44 0.0373 3.14-0.125 4.23-0.984zm11.9 0.139c1.05-0.336 1.51-0.809 1.72-1.78 0.407-1.86 0.348-8.24-0.0814-8.86-0.936-1.35-6.58-1.98-7.6-0.851-0.295 0.325-0.579 2.59-0.646 5.14-0.102 3.93 0.003 4.69 0.754 5.45 1.27 1.28 3.56 1.64 5.85 0.906zm-43.5-0.624c2.17-1.39 3.09-7.93 1.37-9.68-1.38-1.4-4.15-1.93-6.11-1.18-2 0.766-2.15 0.978-2.69 4.03-0.667 3.75 0.0375 5.6 2.52 6.64 2.41 0.999 3.58 1.04 4.91 0.192zm17.1-1.46c0.513-1.48 0.564-2.98 0.236-6.91-0.412-4.93-0.441-5.02-1.71-5.42-1.02-0.325-1.8-0.192-3.73 0.638-3.95 1.69-4.93 2.79-5.59 6.25-0.318 1.66-0.506 3.78-0.416 4.72 0.155 1.62 0.271 1.74 2.29 2.24 1.17 0.289 3.51 0.491 5.2 0.45l3.07-0.0745zm40.1 1.32c2.07-1.2 1.91-9.81-0.207-11-0.227-0.128-1.79 0.188-3.47 0.703-3.55 1.09-4.25 1.97-4.19 5.26 0.0563 3.03 0.515 4.23 1.86 4.85 1.3 0.603 5.09 0.722 6.01 0.189zm-68.8-2.56c0.769-2.11 0.832-6.83 0.0992-7.5-0.311-0.284-2.15-0.61-4.09-0.724-3.26-0.191-3.56-0.137-4.08 0.744-0.563 0.963-0.366 3.32 0.492 5.86 0.452 1.34 1.65 2.25 3.73 2.83 2.55 0.708 3.22 0.496 3.84-1.21zm31.8-21c0.135-0.772 0.198-2.18 0.14-3.13-0.101-1.65-0.0423-1.73 1.3-1.73 1.28 0 1.44 0.168 1.81 1.86 0.759 3.51 1.5 2.11 4.91-9.21l1.17-3.89-0.775-6.48c-0.426-3.56-1.38-9.79-2.13-13.8-0.745-4.04-1.53-8.5-1.74-9.91-0.421-2.78-1.28-3.6-1.74-1.67-0.16 0.664-0.505 5.19-0.769 10.1-0.518 9.57-0.662 10.5-1.65 10.1-1.19-0.419-1.72-2.91-2.08-9.77-0.195-3.74-0.511-6.94-0.702-7.12-0.658-0.602-1.23 0.963-1.23 3.4-0.004 1.34-0.745 6.01-1.65 10.4-2.11 10.2-2.4 13.2-1.67 17.2 1.06 5.81 4.83 15.1 6.13 15.1 0.244 0 0.555-0.632 0.69-1.4zm-55.5-1.88c0-0.35-0.526-1.59-1.17-2.75-0.643-1.16-1.31-2.9-1.48-3.87s-0.469-1.76-0.665-1.76c-0.741 0-0.999-7.33-0.438-12.5 0.543-4.96 0.515-5.48-0.496-9.47-1.02-4.02-2.9-8.19-3.98-8.85-1.14-0.689-1.18 0.51-0.0889 2.76 1.81 3.74 2.19 6.77 2.16 17.2-0.0291 9.27 0.0253 9.89 1.12 12.6 1.97 4.95 5.05 8.94 5.05 6.53zm111-0.137c3.82-2.75 5.26-9.97 4.22-21.2-0.318-3.44-0.806-6.51-1.08-6.81-0.894-0.985-0.191-8.32 1.06-11.1 0.839-1.85 0.971-2.55 0.553-2.94-0.766-0.7-2.83 3.52-3.45 7.04-0.517 2.94-0.386 4.57 1.07 13.3 1.68 10.1 0.622 16.3-3.43 19.9-1.25 1.11-2.14 2.14-1.98 2.29 0.556 0.508 1.9 0.261 3.04-0.559zm-69.6-18.7c0.891-0.416 2.03-1.27 2.54-1.9 1.94-2.42 4.92-18.8 4.47-24.6-0.238-3.05-1.53-5.83-4.45-9.55-2.3-2.92-2.76-3.09-7.12-2.58-3.83 0.445-4.46 0.622-15.9 4.48-12.2 4.09-13.2 4.71-14.4 8.95-0.708 2.42-0.191 11.8 0.741 13.4 1.68 2.96 6.18 5.29 13.1 6.78 2.45 0.526 5.44 1.55 7.32 2.52 6.37 3.26 10.5 3.98 13.8 2.44zm41.8-2.5c1.04-0.394 3.91-1.75 6.38-3 2.47-1.26 5.98-2.69 7.8-3.2 3.69-1.02 7.36-3.26 8.75-5.35 0.506-0.761 1.27-2.82 1.7-4.58 1.53-6.28-0.129-11.4-5.03-15.6-4.3-3.7-6.68-4.7-12.4-5.22-6.96-0.638-11-0.19-15.1 1.67-4.03 1.84-5.88 3.49-7.72 6.86-1.22 2.24-1.4 3.03-1.39 6.23 0.005 3.46 0.175 4.08 2.97 10.7 5.54 13.2 5.23 12.8 9.26 12.4 1.56-0.133 3.69-0.564 4.72-0.959z"/>
<path d="m425 173c-4.94-3.33-7.53-8.72-8.02-16.6-0.359-5.9 0.23-10.3 2.77-20.9 2.27-9.39 2.57-11.3 2.71-16.8l0.126-4.84-0.701-1.29c-0.386-0.709-0.768-1.28-0.851-1.27-0.255 0.028-3.34 3.69-5.22 6.19-4.09 5.45-6.42 10.8-6.84 15.8l-0.164 1.94-1.32 0.274c-2.66 0.552-2.72 0.534-3.1-0.885-0.501-1.9-0.265-6.63 0.436-8.72 0.95-2.83 3.08-6.78 6.13-11.4 3.38-5.1 5.59-9.13 6.4-11.7 0.665-2.1 0.744-2.14 3.9-2.37l2.19-0.155 0.782 1.99c1.86 4.75 2.55 8.08 2.77 13.5 0.255 6.18-0.397 11.7-2.97 25.1-2.23 11.7-2.2 11.4-1.54 15 1.15 6.26 2.72 9.89 5.67 13.1 0.712 0.767 0.734 0.862 0.556 2.4-0.102 0.881-0.282 1.86-0.4 2.17-0.339 0.895-1.39 0.706-3.32-0.594zm-22.6-25-1.1-0.0982 0.136-1.01c0.208-1.55 1.21-2.85 2.8-3.63 1.24-0.606 1.81-0.702 5.38-0.9 2.2-0.122 4.42-0.226 4.94-0.231l0.947-0.01v2.4c0 2.83 0.725 2.44-5.83 3.16-4.61 0.504-5.06 0.524-7.28 0.326zm22.8-3.24c-0.209-0.833 0.059-2.49 0.559-3.46 0.599-1.16 2.29-2.89 4.39-4.49 2.17-1.65 4.04-3.58 4.67-4.79 1.35-2.61 2.27-11.3 1.67-15.7-0.815-6.12-3.98-12.9-8.11-17.4-0.695-0.76-1.26-1.49-1.26-1.63 0-0.137 1.21-1.37 2.69-2.74 1.9-1.76 2.73-2.38 2.82-2.12 0.334 1.05 4.55 8.92 5.5 10.3 2.05 2.9 4.77 4.96 7.44 5.65 0.623 0.16 1.56 0.456 2.09 0.657 1.38 0.53 3.27 0.452 6.45-0.266 4.76-1.07 6.27-0.769 7.36 1.48 0.904 1.87 0.723 2.2-1.64 2.99-4.15 1.39-9.62 1.45-15.1 0.166-1.69-0.396-2.31-0.453-2.53-0.233-0.331 0.331-0.349 2.51-0.05 6.08 0.168 2 0.11 2.87-0.348 5.26-1.39 7.26-4.11 12.6-8.57 16.7-1.76 1.65-2.4 2.08-3.56 2.41-0.775 0.223-2.06 0.733-2.86 1.13l-1.45 0.726-0.162-0.645zm-14.3-44.6c-0.38-0.114-1.09-0.455-1.58-0.757-0.729-0.45-0.888-0.7-0.888-1.39v-0.844l1.71-0.167c4.26-0.417 7.7-1.82 11.1-4.54 3.61-2.89 6.75-7.06 11.8-15.8 1.64-2.8 2.67-4.32 2.95-4.33 0.511-0.0106 1.67 1.32 1.88 2.15 0.338 1.35-1.6 7.83-3.46 11.5-3.58 7.18-9.59 12.1-17 13.8-2.07 0.497-5.25 0.613-6.5 0.237zm-126-3.54-40.9-0.128-0.823-0.587c-1.03-0.738-2.62-3.95-3.32-6.74-1.21-4.82-1.92-10.1-2.31-17.3-0.146-2.71-0.503-8.57-0.792-13-0.574-8.83-0.533-14.4 0.169-22.6 1.06-12.5 2.98-19.9 5.57-21.6 0.711-0.466 8.17-0.92 32.4-1.97 22.8-0.988 47.4-0.176 61.2 2.02 3.12 0.495 3.69 0.934 5.19 3.97 1.51 3.07 2.38 6.56 2.61 10.5 0.246 4.27 0.145 5.28-0.543 5.47-0.88 0.236-3.7 0.174-4.19-0.0922-0.72-0.385-1.24-2.02-1.66-5.24-0.89-6.84-2.1-8.45-7.27-9.67-5.77-1.36-14.6-1.87-32-1.86-17 0.0153-30.1 0.538-43.3 1.72-3.25 0.293-4.18 0.468-5.19 0.98-2.61 1.32-4.57 4.42-5.76 9.13-0.917 3.61-1.1 5.98-1.37 17.6-0.391 16.7 0.244 24.7 2.62 33.4 1.44 5.22 2.63 6.99 5.74 8.5 3.45 1.68 2.1 1.62 36.4 1.61 29.7-0.009 39.5-0.195 43.3-0.822 3.59-0.584 5.64-4.3 6.82-12.3 0.55-3.75 0.616-3.98 1.35-4.63 1.48-1.32 3.43-1.17 4.25 0.349 0.743 1.36 0.588 5.76-0.364 10.3-1.23 5.86-2.35 9.83-3.01 10.6-1.28 1.52-5.04 2.42-10.7 2.58-1.74 0.0469-21.6 0.0274-44.1-0.0432zm115-4.15c-1.65-0.407-2.64-0.941-3.83-2.06l-0.97-0.915 0.591-0.479c0.916-0.741 2.89-1.24 6.48-1.63 1.81-0.196 3.8-0.522 4.42-0.725 6.87-2.23 11.2-4.98 16.7-10.7 2.72-2.81 8.31-9.75 8.73-10.8 0.084-0.219 0.539-0.345 1.25-0.345 1.3 0 1.3-0.15 0.0527 3.66-2.82 8.59-8.64 15.7-16.9 20.7-1.87 1.13-2.22 1.24-7.93 2.43-6.42 1.34-6.65 1.36-8.56 0.89zm-122-5.3c0.243-0.634 9.51-13.5 11.6-16.1 4.25-5.28 10.4-11.8 12.8-13.4 1.75-1.21 4.83-2.21 7.85-2.53 3.59-0.387 33.1-0.373 56 0.0266 19.4 0.339 18.9 0.295 24.4 2.05 1.71 0.543 3.17 0.939 3.22 0.881 0.0587-0.0587-0.203-0.513-0.582-1.01-0.891-1.17-2.87-2.47-4.94-3.24-3.46-1.3-4.63-1.38-24.4-1.67-17.8-0.263-25.8-0.452-47.1-1.11l-9.98-0.309-1.48-0.739c-2.61-1.3-4.7-3.6-15-16.5-5.46-6.85-9.94-12.5-9.94-12.6 0-0.254 5.68 0.209 6.04 0.493 0.198 0.156 2.85 3.62 5.9 7.69 6.56 8.78 8.52 11.2 11.5 14 2.99 2.81 4.04 3.51 5.91 3.9 3.6 0.757 13.4 0.934 35.3 0.638 25.4-0.344 33.9-0.161 37.8 0.813 3.16 0.778 7.05 2.13 9.47 3.29 1.02 0.491 1.91 0.848 1.96 0.794 0.236-0.236-0.754-1.65-1.92-2.74-3.67-3.43-9.12-5.56-16-6.24-2.74-0.272-18.4-0.397-28.7-0.229-3.2 0.0525-9.56 0.0929-14.1 0.0897-7.49-0.005-8.65-0.0628-11.5-0.566-3.7-0.667-7.85-2-10.3-3.3-1.46-0.782-1.86-1.14-2.32-2.07 1-2.6 0-9.9 2-15.8l0.265-1.33h2c1.1 0 2.02 0.0284 2.04 0.0632 0.0221 0.0348 0.112 2.85 0.2 6.25 0.175 6.78 0.259 7.2 1.79 8.94 1.11 1.27 1.82 1.59 4.18 1.91 5 0.672 8.83 0.783 27.1 0.778 11.2-0.003 20.5 0.105 22.4 0.259 8.55 0.723 15.4 2.43 21.4 5.33 2.89 1.41 3.21 1.64 5.27 3.83 3.88 4.12 7.63 9.62 9.78 14.3l0.979 2.15-0.0915-1.54c-0.204-3.43-5.26-11.8-13.2-21.8-1.47-1.86-2.68-3.48-2.68-3.59 0-0.363 1.12-0.983 1.77-0.983 1.15 0 4.13 2.01 5.48 3.7 6.9 8.63 11.2 15.7 13.2 21.6 0.45 1.32 1.09 2.68 1.41 3.03l0.596 0.626 0.764-0.764 0.764-0.764-0.654-2.26c-1.46-5.05-3.05-8.18-9.19-18-4.68-7.52-4.71-7.6-2.67-7.6 0.886 0 1.43 0.232 2.94 1.26 1.02 0.693 2.03 1.4 2.25 1.58 0.646 0.513 5.71 9.09 7.46 12.7 0.887 1.8 2.02 4.59 2.52 6.21 1.32 4.28 1.33 4.28 2.76 3.02 0.92-0.808 0.936-0.852 0.789-2.22-0.343-3.2-2.18-8.95-4.36-13.6-0.608-1.31-1.11-2.53-1.11-2.71 0-0.186 0.329-0.707 0.732-1.16 0.704-0.788 0.758-0.805 1.45-0.446 1.17 0.607 3.19 2.81 4.05 4.43 0.44 0.828 1.45 3.69 2.25 6.37 0.796 2.68 1.54 4.86 1.65 4.86 0.111 0 0.578-0.472 1.04-1.05 2.12-2.66 2.89-3.03 3.95-1.9 0.686 0.73 0.698 1.68 0.044 3.58-0.675 1.96-0.649 2.51 0.138 2.87 0.354 0.161 0.809 0.293 1.01 0.293 0.496 0 0.462 0.657-0.125 2.36-1.74 5.04-5.48 9.49-11.4 13.5-5.61 3.84-12.9 6.24-19.8 6.53-3.42 0.142-5.42-0.255-7.12-1.42-1.31-0.895-1.35-1.68-0.149-2.49 1.32-0.887 3.06-1.3 6.69-1.59 11.3-0.906 19.8-5 26-12.5 0.973-1.18 0.994-1.23 0.293-0.773-7.69 5.05-16.1 8.74-22.4 9.86-1.91 0.338-3.32 0.409-6.19 0.31-3.94-0.136-6.29-0.61-9.02-1.81-1.51-0.666-1.7-1.01-1.59-2.85l0.0641-1.07-20.7-0.127c-11.4-0.0701-23.4-0.127-26.6-0.127-7.54 0.001-14.9 0.486-21.1 1.4-2.94 0.43-3.46 0.813-4.44 3.31-0.663 1.68-0.793 4.93-0.385 9.62 0.254 2.92-0.0553 4.64-0.949 5.26-0.325 0.228-1.13 0.368-2.12 0.368-1.89 0-1.89 0.001-2.31-3.42-0.615-5.02-0.236-10.5 0.984-14.1 0.489-1.47 0.698-1.75 1.95-2.65 2.64-1.89 7.05-3.15 13.2-3.78 1.51-0.155 7.82-0.266 14.7-0.259 6.6 0.007 18.4-0.0621 26.3-0.153 9.14-0.106 16.8-0.063 21.3 0.119 3.88 0.156 7.1 0.235 7.16 0.175 0.251-0.251-2.7-1.67-4.47-2.15-3.48-0.938-5.07-1.04-20.4-1.27-8.34-0.128-21.9-0.366-30.1-0.529-22.6-0.45-24.7-0.443-26.7 0.0898-3.43 0.942-6.43 2.39-8.97 4.32-2.57 1.95-5.53 5.27-12.6 14.1l-7.6 9.54h-2.64c-2.23 0-2.62-0.0584-2.5-0.374z"/>
<g transform="matrix(.841 0 0 -.841 444 210)">
<g fill-opacity=".0196">
<path d="m172 231h26.5v-26.5h-26.5v26.5z"/>
<path d="m172 202h26.5v-26.5h-26.5v26.5z"/>
<path d="m143 202h26.5v-26.5h-26.5v26.5z"/>
<path d="m113 202h26.5v-26.5h-26.5v26.5z"/>
<path d="m172 172h26.5v-26.5h-26.5v26.5z"/>
<path d="m143 172h26.5v-26.5h-26.5v26.5z"/>
</g>
<g fill-opacity=".0314">
<path d="m134 242h26.5v-26.5h-26.5v26.5z"/>
<path d="m104 242h26.5v-26.5h-26.5v26.5z"/>
<path d="m74.3 242h26.5v-26.5h-26.5v26.5z"/>
<path d="m74.3 212h26.5v-26.5h-26.5v26.5z"/>
<path d="m113 172h26.5v-26.5h-26.5v26.5z"/>
</g>
<g fill-opacity=".0196">
<g>
<path d="m83.1 172h26.5v-26.5h-26.5v26.5z"/>
<path d="m172 142h26.5v-26.5h-26.5v26.5z"/>
<path d="m143 142h26.5v-26.5h-26.5v26.5z"/>
<path d="m113 142h26.5v-26.5h-26.5v26.5z"/>
<path d="m83.1 142h26.5v-26.5h-26.5v26.5z"/>
</g>
<g transform="translate(40.9 98.8)">
<path d="m0 0h23.4v-7.96h-13.9v-6.85h12v-7.97h-12v-13.2h-9.5v36z" fill-opacity=".0196" fill="#fff"/>
</g>
<g clip-path="url(#c)">
<g transform="translate(93.2 81)">
<path d="m0 0c0 6.53-2.65 10.3-6.96 10.3s-6.96-3.75-6.96-10.3c0-6.52 2.65-10.6 6.96-10.6 4.29 0 6.94 4.08 6.94 10.6m-23.7 0c0 11.8 6.75 18.5 16.7 18.5s16.7-6.69 16.7-18.5-6.75-18.8-16.7-18.8c-9.96 0-16.7 6.97-16.7 18.8" fill-opacity=".0196" fill="#fff"/>
</g>
<g transform="translate(133 81)">
<path d="m0 0c0 6.53-2.65 10.3-6.97 10.3s-6.97-3.75-6.97-10.3c0-6.52 2.65-10.6 6.97-10.6 4.28 0 6.93 4.08 6.93 10.6m-23.7 0c0 11.8 6.75 18.5 16.7 18.5s16.7-6.69 16.7-18.5-6.75-18.8-16.7-18.8c-9.96 0-16.7 6.97-16.7 18.8" fill-opacity=".0196" fill="#fff"/>
</g>
<g transform="translate(161 66.5)">
<path d="m0 0c6.25 0 9.9 2.27 9.9 7.2 0 4.5-3.55 6.5-9.9 6.5h-6.31v-13.7h6.31zm-0.941 17.1c6.18 0 8.73 2.21 8.73 6.25 0 3.92-2.87 5.58-8.51 5.58h-5.58v-11.8h5.37zm-9.96 15.5h10.8c7.36 0 12.4-2.49 12.4-8.85 0-3.6-2.04-6.8-6.3-7.91v-0.223c5.31-0.833 8.41-3.71 8.41-8.68 0-7.13-5.64-10.6-13.8-10.6h-11.6v36.3z" fill-opacity=".0314" fill="#fff"/>
</g>
<g transform="translate(200 77.6)">
<path d="m0 0-1.72 5.53c-1.33 4.04-2.49 8.02-3.65 12.2h-0.225c-1.09-4.2-2.26-8.13-3.58-12.2l-1.72-5.5h10.9zm1.16-3.71h-13.2l-3.48-11.1h-4.7l12.3 36.3h5.2l12.3-36.3h-4.93l-3.42 11.1z" fill-opacity=".0314" fill="#fff"/>
</g>
<g transform="translate(221 81.9)">
<path d="m0 0h6.09c5.64 0 8.79 2.33 8.79 7.02 0 4.76-3.15 6.47-8.79 6.47h-6.09v-13.5zm15.3-19.1-8.74 15.3h-6.58v-15.3h-4.59v36.3h11.3c7.41 0 12.7-2.66 12.7-10.2 0-5.64-3.21-9.07-8.13-10.3l9.18-15.8h-5.2z" fill-opacity=".0314" fill="#fff"/>
</g>
<g transform="translate(83.1 53)">
<path d="m0 0h1.34v-4.43h4.91v4.43h1.36v-10.6h-1.36v4.98h-4.91v-4.98h-1.34v10.6z" fill-opacity=".0196" fill="#fff"/>
</g>
<g transform="translate(100 46.7)">
<path d="m0 0-0.499 1.61c-0.386 1.18-0.721 2.34-1.06 3.57h-0.065c-0.33-1.23-0.67-2.39-1.06-3.57l-0.49-1.61h3.17zm0.34-1.08h-3.85l-1.02-3.22h-1.37l3.58 10.6h1.52l3.58-10.6h-1.44l-1 3.22z" fill-opacity=".0196" fill="#fff"/>
</g>
<g transform="translate(110 53.2)">
<path d="m0 0c1.28 0 2.27-0.612 2.89-1.31l-0.76-0.85c-0.548 0.595-1.22 0.98-2.11 0.98-2.02 0-3.34-1.64-3.34-4.27 0-2.66 1.27-4.34 3.27-4.34 1.01 0 1.76 0.42 2.43 1.18l0.759-0.825c-0.84-0.965-1.87-1.53-3.23-1.53-2.66 0-4.62 2.03-4.62 5.48 0 3.41 2 5.49 4.71 5.49" fill-opacity=".0196" fill="#fff"/>
</g>
<g transform="translate(117 53)">
<path d="m0 0h1.34v-5.31h0.048l4.4 5.31h1.51l-3.3-4.03 3.82-6.54h-1.5l-3.16 5.5-1.82-2.14v-3.35h-1.34v10.6z" fill-opacity=".0196" fill="#fff"/>
</g>
<g transform="translate(129 53)">
<path d="m0 0h6.09v-1.13h-4.75v-3.32h4.01v-1.14h-4.01v-3.84h4.91v-1.14h-6.25v10.6z" fill-opacity=".0196" fill="#fff"/>
</g>
<g transform="translate(140 48)">
<path d="m0 0h1.77c1.64 0 2.56 0.678 2.56 2.05 0 1.39-0.917 1.89-2.56 1.89l-1.77-0.01v-3.93zm4.46-5.56-2.54 4.47h-1.92v-4.47h-1.34v10.6h3.31c2.16 0 3.71-0.774 3.71-2.97 0-1.64-0.934-2.64-2.37-3l2.68-4.61h-1.52z" fill-opacity=".0196" fill="#fff"/>
</g>
<g transform="translate(150 44.7)">
<path d="m0 0c0.759-0.791 1.82-1.32 2.92-1.32 1.39 0 2.2 0.695 2.2 1.72 0 1.08-0.758 1.42-1.75 1.87l-1.51 0.66c-1 0.419-2.14 1.18-2.14 2.72 0 1.61 1.4 2.8 3.32 2.8 1.26 0 2.37-0.532 3.12-1.31l-0.73-0.86c-0.64 0.62-1.41 1-2.4 1-1.17 0-1.97-0.59-1.97-1.54 0-1.02 0.92-1.41 1.76-1.76l1.5-0.65c1.22-0.53 2.18-1.25 2.18-2.82 0-1.67-1.38-3.01-3.6-3.01-1.48 0-2.79 0.61-3.71 1.56l0.81 0.94z" fill-opacity=".0196" fill="#fff"/>
</g>
<g transform="translate(164 47.7)">
<path d="m0 0c1.84 0 2.72 0.678 2.72 2.18 0 1.53-0.9 2.03-2.72 2.03h-1.74v-4.21h1.74zm-3.08 5.29h3.24c2.34 0 3.9-0.791 3.9-3.11 0-2.23-1.58-3.27-3.9-3.27h-1.9v-4.19h-1.34v10.6z" fill-opacity=".0196" fill="#fff"/>
</g>
<g transform="translate(176 46.7)">
<path d="m0 0-0.499 1.61c-0.387 1.18-0.731 2.34-1.06 3.57h-0.064c-0.33-1.23-0.67-2.39-1.06-3.57l-0.5-1.61h3.18zm0.338-1.08h-3.85l-1.02-3.22h-1.37l3.58 10.6h1.51l3.58-10.6h-1.43l-1 3.22z" fill-opacity=".0196" fill="#fff"/>
</g>
<g transform="translate(186 53.2)">
<path d="m0 0c1.28 0 2.27-0.612 2.89-1.31l-0.76-0.85c-0.547 0.595-1.22 0.98-2.11 0.98-2.02 0-3.34-1.64-3.34-4.27 0-2.66 1.27-4.34 3.27-4.34 1.01 0 1.76 0.42 2.44 1.18l0.757-0.825c-0.838-0.965-1.87-1.53-3.23-1.53-2.66 0-4.62 2.03-4.62 5.48-0.01 3.41 1.99 5.49 4.7 5.49" fill-opacity=".0196" fill="#fff"/>
</g>
<g transform="translate(193 53)">
<path d="m0 0h6.09v-1.13h-4.75v-3.32h4.01v-1.14h-4.01v-3.84h4.92v-1.14h-6.26v10.6z" fill-opacity=".0196" fill="#fff"/>
</g>
</g>
</g>
</g>
<path d="m499 362c-4.31-2.09-6.77-6.29-6.12-10.5 0.712-4.6 3.15-7.54 8.01-9.68 2.32-1.02 3.46-1.24 6.26-1.24 1.88-0.00018 3.43-0.156 3.43-0.346s-0.744-0.591-1.65-0.892c-0.91-0.301-1.64-0.777-1.63-1.06 0.0155-0.282 2.84-4.3 6.27-8.94l6.24-8.43 11-0.116c6.03-0.0638 11-0.0293 11 0.0768s-1.54 2.33-3.43 4.95c-6.36 8.83-11.5 16.2-11.6 16.8-0.0942 0.356 0.115 0.483 0.548 0.331 1.37-0.481 3.5 1.01 4.35 3.05 1.48 3.54 0.0613 7.88-3.41 10.4-3.07 2.26-5.81 3.3-9.19 3.53-4.03 0.265-5.14-0.538-5.14-3.74 0-1.32-0.258-2.3-0.688-2.63-0.994-0.754-1.67-0.174-1.67 1.43 0 2.34-2.01 4.42-5.94 6.14-3.31 1.45-4.9 1.65-6.59 0.833zm83.6-0.59c-1.04-0.439-2.4-1.3-3.02-1.92l-1.14-1.13 1.25-1.65c1.19-1.56 1.59-2.69 0.974-2.69-0.154 0-1.16 0.687-2.23 1.53-4.47 3.5-10.6 5.11-15.1 3.93-3.83-1.02-6.7-2.88-7.88-5.11-2.02-3.82-0.954-7.29 3.58-11.7 2.64-2.54 2.68-2.62 1.31-2.4-0.78 0.129-1.84 0.345-2.36 0.481-0.813 0.213-1.83-1.11-7.32-9.52-3.51-5.37-6.45-9.94-6.54-10.1-0.088-0.212 5.26-0.38 12.1-0.38h12.3l4.43 5.51c2.44 3.03 5.44 6.82 6.68 8.43 1.24 1.6 2.5 2.92 2.81 2.92 1.46 0 6.76 2.79 9.04 4.76 3.47 3 4.71 5.66 4.72 10.1 0.009 3.77-0.439 4.9-2.66 6.66-3.81 3.03-7.4 3.76-11 2.24zm-132-1.96c-6.56-2.47-12.1-8.17-13.9-14.3-0.89-3.06-0.804-4.09 0.577-6.95 1.71-3.53 3.52-5.45 7.31-7.76 3.08-1.87 3.88-2.84 2.85-3.42-0.24-0.136-1.23 0.181-2.2 0.704l-1.76 0.951-1.53-1.67c-1.84-2.01-2.58-4.06-2.58-7.23 0-6.66 4.25-11.3 12.7-14 4.91-1.53 7.34-1.73 10.8-0.911 4.69 1.1 7.33 3.1 9.36 7.09 1.01 1.98 1.14 2.78 1 5.9l-0.165 3.61 6.14-0.171c20.4-0.567 27.7-0.552 27.6 0.0555-0.164 0.679-13.3 18.8-14.8 20.4-0.932 0.995-1.08 1.01-10.9 1.05l-9.91 0.0373-2.08-2.01c-2.46-2.38-3.63-2.1-1.76 0.423 1.5 2.02 2.16 4.13 2.16 6.95 0.002 1.74-0.341 2.71-1.68 4.75-2.17 3.31-3.67 4.74-6.58 6.28-3.08 1.63-6.79 1.7-10.8 0.21zm176-3.74c-4.53-0.717-8.71-3.32-10.6-6.62-0.863-1.48-1.04-2.52-1.09-6.31-0.0285-2.5-0.241-4.62-0.473-4.71-0.402-0.169-1.76 1.93-2.27 3.53-0.219 0.678-1 0.756-7.56 0.756h-7.31l-8.32-10.9-8.32-10.9 11.5-0.265c6.32-0.146 13.8-0.291 16.6-0.324 4.86-0.057 5.08-0.1 5.28-1.03 1.08-5.1 1.52-6.49 2.8-8.7 1.9-3.29 5.09-6.18 8.36-7.57 2.26-0.965 3.24-1.11 7.56-1.12 4.59-0.007 5.19 0.0932 8.09 1.35 4.03 1.75 6.69 3.96 8.25 6.9 1.14 2.13 1.23 2.68 1.03 6.12-0.277 4.65-1.45 7.59-4.9 12.3-1.4 1.91-2.55 3.65-2.55 3.85 0 0.698 0.775 0.359 2.13-0.93 0.747-0.713 1.61-1.3 1.92-1.3 0.826 0 3.97 3.32 4.74 5 0.39 0.853 0.663 2.94 0.663 5.07 0 3.16-0.18 3.95-1.43 6.24-1.64 3-4.55 5.64-7.86 7.15-4.71 2.14-11.5 3.17-16.1 2.44zm-95.7-38.4c-1.36-0.632-2.09-0.738-2.97-0.432-2.59 0.899-10.9 0.17-13.6-1.19-0.697-0.357-1.46-0.227-3.39 0.583-1.75 0.733-2.89 0.956-3.83 0.75-1.83-0.402-3.97-1.4-5.19-2.42-1.02-0.852-1.03-0.852-2.43 0.0988-1.28 0.865-1.58 0.903-3.23 0.414-2.69-0.796-5.62-2.46-7.16-4.06-1.06-1.1-1.49-2.16-1.94-4.73-0.523-2.97-0.725-3.38-1.95-3.95-9.7-4.59-28.3-20.7-36-31.2-5.7-7.78-10.6-17.8-15-30.6-0.815-2.38-1.69-4.9-1.95-5.62-1.42-3.88-3.31-16.6-3.92-26.4-0.357-5.7-0.55-10.5-0.429-10.6 0.121-0.113 6.39-0.281 13.9-0.373l13.7-0.168-0.321 4.91c-0.353 5.41 0.215 11.4 1.73 18.3 1 4.54 5.74 18.2 6.75 19.5 0.501 0.627 0.721-0.0188 1.42-4.16 1.04-6.2 2.55-10.6 5.73-16.6 5.22-9.89 12.5-17.2 23.1-23.1 13.2-7.39 31.6-10.4 45.4-7.36 12.6 2.77 22.5 8.24 34 18.8 9 8.24 14.3 16.1 18 26.6 0.994 2.84 2.01 5.1 2.26 5.03 0.25-0.073 0.7-1.29 0.999-2.69 0.3-1.41 0.89-3.71 1.31-5.12 2.48-8.26 3.08-22.2 1.29-30-0.563-2.47-0.911-4.59-0.772-4.71 0.139-0.127 12.4-0.324 27.2-0.439l26.9-0.209v4.06c-0.003 20.1-7.49 44.8-18.9 62.3-8.91 13.7-18.2 24.2-28.3 31.9-7.46 5.7-12.1 8.18-25.7 13.7-5.06 2.08-5.55 2.38-5.85 3.63-0.601 2.5-1.73 4.12-3.18 4.59-2.3 0.734-6.3 0.543-8.32-0.399l-1.82-0.848-1.28 1.01c-2.17 1.7-7.19 1.87-10.5 0.347-1.39-0.639-1.58-0.64-2.36-0.006-2.2 1.79-10.4 2.27-13.6 0.804zm10.9-3.65c1.15-0.905 1.33-1.39 1.49-4.07 0.257-4.16-1.25-8.43-3.39-9.63-1.85-1.03-4.29-1.06-6.45-0.0742l-1.65 0.756-0.236 6.57-0.236 6.57 1.65 0.404c0.91 0.222 2.97 0.424 4.58 0.449 2.44 0.0373 3.14-0.125 4.23-0.984zm11.9 0.139c1.05-0.336 1.51-0.809 1.72-1.78 0.407-1.86 0.348-8.24-0.0814-8.86-0.936-1.35-6.58-1.98-7.6-0.851-0.295 0.325-0.579 2.59-0.646 5.14-0.102 3.93 0.003 4.69 0.754 5.45 1.27 1.28 3.56 1.64 5.85 0.906zm-43 0c2.17-1.39 3.09-7.93 1.37-9.68-1.38-1.4-4.15-1.93-6.11-1.18-2 0.766-2.15 0.978-2.69 4.03-0.667 3.75 0.0375 5.6 2.52 6.64 2.41 0.999 3.58 1.04 4.91 0.192zm17.1-1.46c0.513-1.48 0.564-2.98 0.236-6.91-0.412-4.93-0.441-5.02-1.71-5.42-1.02-0.325-1.8-0.192-3.73 0.638-3.95 1.69-4.93 2.79-5.59 6.25-0.318 1.66-0.506 3.78-0.416 4.72 0.155 1.62 0.271 1.74 2.29 2.24 1.17 0.289 3.51 0.491 5.2 0.45l3.07-0.0745zm40.1 1.32c2.07-1.2 1.91-9.81-0.207-11-0.227-0.128-1.79 0.188-3.47 0.703-3.55 1.09-4.25 1.97-4.19 5.26 0.0563 3.03 0.515 4.23 1.86 4.85 1.3 0.603 5.09 0.722 6.01 0.189zm-68.8-2.56c0.769-2.11 0.832-6.83 0.0992-7.5-0.311-0.284-2.15-0.61-4.09-0.724-3.26-0.191-3.56-0.137-4.08 0.744-0.563 0.963-0.366 3.32 0.492 5.86 0.452 1.34 1.65 2.25 3.73 2.83 2.55 0.708 3.22 0.496 3.84-1.21zm31.8-22.3c0.135-0.772 0.198-2.18 0.14-3.13-0.101-1.65-0.0423-1.73 1.3-1.73 1.28 0 1.44 0.168 1.81 1.86 0.759 3.51 1.5 2.11 4.91-9.21l1.17-3.89-0.775-6.48c-0.426-3.56-1.38-9.79-2.13-13.8-0.745-4.04-1.53-8.5-1.74-9.91-0.421-2.78-1.28-3.6-1.74-1.67-0.16 0.664-0.505 5.19-0.769 10.1-0.518 9.57-0.662 10.5-1.65 10.1-1.19-0.419-1.72-2.91-2.08-9.77-0.195-3.74-0.511-6.94-0.702-7.12-0.658-0.602-1.23 0.963-1.23 3.4-0.004 1.34-0.745 6.01-1.65 10.4-2.11 10.2-2.4 13.2-1.67 17.2 1.06 5.81 4.83 15.1 6.13 15.1 0.244 0 0.555-0.632 0.69-1.4zm-55.5-1.88c0-0.35-0.526-1.59-1.17-2.75-0.643-1.16-1.31-2.9-1.48-3.87s-0.469-1.76-0.665-1.76c-0.741 0-0.999-7.33-0.438-12.5 0.543-4.96 0.515-5.48-0.496-9.47-1.02-4.02-2.9-8.19-3.98-8.85-1.14-0.689-1.18 0.51-0.0889 2.76 1.81 3.74 2.19 6.77 2.16 17.2-0.0291 9.27 0.0253 9.89 1.12 12.6 1.97 4.95 5.05 8.94 5.05 6.53zm111 0c3.82-2.75 5.26-9.97 4.22-21.2-0.318-3.44-0.806-6.51-1.08-6.81-0.894-0.985-0.191-8.32 1.06-11.1 0.839-1.85 0.971-2.55 0.553-2.94-0.766-0.7-2.83 3.52-3.45 7.04-0.517 2.94-0.386 4.57 1.07 13.3 1.68 10.1 0.622 16.3-3.43 19.9-1.25 1.11-2.14 2.14-1.98 2.29 0.556 0.508 1.9 0.261 3.04-0.559zm-70-18.9c0.891-0.416 2.03-1.27 2.54-1.9 1.94-2.42 4.92-18.8 4.47-24.6-0.238-3.05-1.53-5.83-4.45-9.55-2.3-2.92-2.76-3.09-7.12-2.58-3.83 0.445-4.46 0.622-15.9 4.48-12.2 4.09-13.2 4.71-14.4 8.95-0.708 2.42-0.191 11.8 0.741 13.4 1.68 2.96 6.18 5.29 13.1 6.78 2.45 0.526 5.44 1.55 7.32 2.52 6.37 3.26 10.5 3.98 13.8 2.44zm41.8-2.5c1.04-0.394 3.91-1.75 6.38-3 2.47-1.26 5.98-2.69 7.8-3.2 3.69-1.02 7.36-3.26 8.75-5.35 0.506-0.761 1.27-2.82 1.7-4.58 1.53-6.28-0.129-11.4-5.03-15.6-4.3-3.7-6.68-4.7-12.4-5.22-6.96-0.638-11-0.19-15.1 1.67-4.03 1.84-5.88 3.49-7.72 6.86-1.22 2.24-1.4 3.03-1.39 6.23 0.005 3.46 0.175 4.08 2.97 10.7 5.54 13.2 5.23 12.8 9.26 12.4 1.56-0.133 3.69-0.564 4.72-0.959z"/>
<path d="m192 356c-4.94-3.33-7.53-8.72-8.02-16.6-0.359-5.9 0.23-10.3 2.77-20.9 2.27-9.39 2.57-11.3 2.71-16.8l0.126-4.84-0.701-1.29c-0.386-0.709-0.768-1.28-0.851-1.27-0.255 0.028-3.34 3.69-5.22 6.19-4.09 5.45-6.42 10.8-6.84 15.8l-0.164 1.94-1.32 0.274c-2.66 0.552-2.72 0.534-3.1-0.885-0.501-1.9-0.265-6.63 0.436-8.72 0.95-2.83 3.08-6.78 6.13-11.4 3.38-5.1 5.59-9.13 6.4-11.7 0.665-2.1 0.744-2.14 3.9-2.37l2.19-0.155 0.782 1.99c1.86 4.75 2.55 8.08 2.77 13.5 0.255 6.18-0.397 11.7-2.97 25.1-2.23 11.7-2.2 11.4-1.54 15 1.15 6.26 2.72 9.89 5.67 13.1 0.712 0.767 0.734 0.862 0.556 2.4-0.102 0.881-0.282 1.86-0.4 2.17-0.339 0.895-1.39 0.706-3.32-0.594zm-22.6-25-1.1-0.0982 0.136-1.01c0.208-1.55 1.21-2.85 2.8-3.63 1.24-0.606 1.81-0.702 5.38-0.9 2.2-0.122 4.42-0.226 4.94-0.231l0.947-0.01v2.4c0 2.83 0.725 2.44-5.83 3.16-4.61 0.504-5.06 0.524-7.28 0.326zm22.8-3.24c-0.209-0.833 0.059-2.49 0.559-3.46 0.599-1.16 2.29-2.89 4.39-4.49 2.17-1.65 4.04-3.58 4.67-4.79 1.35-2.61 2.27-11.3 1.67-15.7-0.815-6.12-3.98-12.9-8.11-17.4-0.695-0.76-1.26-1.49-1.26-1.63 0-0.137 1.21-1.37 2.69-2.74 1.9-1.76 2.73-2.38 2.82-2.12 0.334 1.05 4.55 8.92 5.5 10.3 2.05 2.9 4.77 4.96 7.44 5.65 0.623 0.16 1.56 0.456 2.09 0.657 1.38 0.53 3.27 0.452 6.45-0.266 4.76-1.07 6.27-0.769 7.36 1.48 0.904 1.87 0.723 2.2-1.64 2.99-4.15 1.39-9.62 1.45-15.1 0.166-1.69-0.396-2.31-0.453-2.53-0.233-0.331 0.331-0.349 2.51-0.05 6.08 0.168 2 0.11 2.87-0.348 5.26-1.39 7.26-4.11 12.6-8.57 16.7-1.76 1.65-2.4 2.08-3.56 2.41-0.775 0.223-2.06 0.733-2.86 1.13l-1.45 0.726-0.162-0.645zm-14.3-44.6c-0.38-0.114-1.09-0.455-1.58-0.757-0.729-0.45-0.888-0.7-0.888-1.39v-0.844l1.71-0.167c4.26-0.417 7.7-1.82 11.1-4.54 3.61-2.89 6.75-7.06 11.8-15.8 1.64-2.8 2.67-4.32 2.95-4.33 0.511-0.0106 1.67 1.32 1.88 2.15 0.338 1.35-1.6 7.83-3.46 11.5-3.58 7.18-9.59 12.1-17 13.8-2.07 0.497-5.25 0.613-6.5 0.237zm-126-3.54-40.9-0.128-0.823-0.587c-1.03-0.738-2.62-3.95-3.32-6.74-1.21-4.82-1.92-10.1-2.31-17.3-0.146-2.71-0.503-8.57-0.792-13-0.574-8.83-0.533-14.4 0.169-22.6 1.06-12.5 2.98-19.9 5.57-21.6 0.711-0.466 8.17-0.92 32.4-1.97 22.8-0.988 47.4-0.176 61.2 2.02 3.12 0.495 3.69 0.934 5.19 3.97 1.51 3.07 2.38 6.56 2.61 10.5 0.246 4.27 0.145 5.28-0.543 5.47-0.88 0.236-3.7 0.174-4.19-0.0922-0.72-0.385-1.24-2.02-1.66-5.24-0.89-6.84-2.1-8.45-7.27-9.67-5.77-1.36-14.6-1.87-32-1.86-17 0.0153-30.1 0.538-43.3 1.72-3.25 0.293-4.18 0.468-5.19 0.98-2.61 1.32-4.57 4.42-5.76 9.13-0.917 3.61-1.1 5.98-1.37 17.6-0.391 16.7 0.244 24.7 2.62 33.4 1.44 5.22 2.63 6.99 5.74 8.5 3.45 1.68 2.1 1.62 36.4 1.61 29.7-0.009 39.5-0.195 43.3-0.822 3.59-0.584 5.64-4.3 6.82-12.3 0.55-3.75 0.616-3.98 1.35-4.63 1.48-1.32 3.43-1.17 4.25 0.349 0.743 1.36 0.588 5.76-0.364 10.3-1.23 5.86-2.35 9.83-3.01 10.6-1.28 1.52-5.04 2.42-10.7 2.58-1.74 0.0469-21.6 0.0274-44.1-0.0432zm115-4.15c-1.65-0.407-2.64-0.941-3.83-2.06l-0.97-0.915 0.591-0.479c0.916-0.741 2.89-1.24 6.48-1.63 1.81-0.196 3.8-0.522 4.42-0.725 6.87-2.23 11.2-4.98 16.7-10.7 2.72-2.81 8.31-9.75 8.73-10.8 0.084-0.219 0.539-0.345 1.25-0.345 1.3 0 1.3-0.15 0.0527 3.66-2.82 8.59-8.64 15.7-16.9 20.7-1.87 1.13-2.22 1.24-7.93 2.43-6.42 1.34-6.65 1.36-8.56 0.89zm-122-5c0.243-0.634 9.51-13.5 11.6-16.1 4.25-5.28 10.4-11.8 12.8-13.4 1.75-1.21 4.83-2.21 7.85-2.53 3.59-0.387 33.1-0.373 56 0.0266 19.4 0.339 18.9 0.295 24.4 2.05 1.71 0.543 3.17 0.939 3.22 0.881 0.0587-0.0587-0.203-0.513-0.582-1.01-0.891-1.17-2.87-2.47-4.94-3.24-3.46-1.3-4.63-1.38-24.4-1.67-17.8-0.263-25.8-0.452-47.1-1.11l-9.98-0.309-1.48-0.739c-2.61-1.3-4.7-3.6-15-16.5-5.46-6.85-9.94-12.5-9.94-12.6 0-0.254 5.68 0.209 6.04 0.493 0.198 0.156 2.85 3.62 5.9 7.69 6.56 8.78 8.52 11.2 11.5 14 2.99 2.81 4.04 3.51 5.91 3.9 3.6 0.757 13.4 0.934 35.3 0.638 25.4-0.344 33.9-0.161 37.8 0.813 3.16 0.778 7.05 2.13 9.47 3.29 1.02 0.491 1.91 0.848 1.96 0.794 0.236-0.236-0.754-1.65-1.92-2.74-3.67-3.43-9.12-5.56-16-6.24-2.74-0.272-18.4-0.397-28.7-0.229-3.2 0.0525-9.56 0.0929-14.1 0.0897-7.49-0.005-8.65-0.0628-11.5-0.566-3.7-0.667-7.85-2-10.3-3.3-1.46-0.782-1.86-1.14-2.32-2.07-1.33-2.69-1.47-10-0.302-15.8l0.265-1.33h2c1.1 0 2.02 0.0284 2.04 0.0632 0.0221 0.0348 0.112 2.85 0.2 6.25 0.175 6.78 0.259 7.2 1.79 8.94 1.11 1.27 1.82 1.59 4.18 1.91 5 0.672 8.83 0.783 27.1 0.778 11.2-0.003 20.5 0.105 22.4 0.259 8.55 0.723 15.4 2.43 21.4 5.33 2.89 1.41 3.21 1.64 5.27 3.83 3.88 4.12 7.63 9.62 9.78 14.3l0.979 2.15-0.0915-1.54c-0.204-3.43-5.26-11.8-13.2-21.8-1.47-1.86-2.68-3.48-2.68-3.59 0-0.363 1.12-0.983 1.77-0.983 1.15 0 4.13 2.01 5.48 3.7 6.9 8.63 11.2 15.7 13.2 21.6 0.45 1.32 1.09 2.68 1.41 3.03l0.596 0.626 0.764-0.764 0.764-0.764-0.654-2.26c-1.46-5.05-3.05-8.18-9.19-18-4.68-7.52-4.71-7.6-2.67-7.6 0.886 0 1.43 0.232 2.94 1.26 1.02 0.693 2.03 1.4 2.25 1.58 0.646 0.513 5.71 9.09 7.46 12.7 0.887 1.8 2.02 4.59 2.52 6.21 1.32 4.28 1.33 4.28 2.76 3.02 0.92-0.808 0.936-0.852 0.789-2.22-0.343-3.2-2.18-8.95-4.36-13.6-0.608-1.31-1.11-2.53-1.11-2.71 0-0.186 0.329-0.707 0.732-1.16 0.704-0.788 0.758-0.805 1.45-0.446 1.17 0.607 3.19 2.81 4.05 4.43 0.44 0.828 1.45 3.69 2.25 6.37 0.796 2.68 1.54 4.86 1.65 4.86 0.111 0 0.578-0.472 1.04-1.05 2.12-2.66 2.89-3.03 3.95-1.9 0.686 0.73 0.698 1.68 0.044 3.58-0.675 1.96-0.649 2.51 0.138 2.87 0.354 0.161 0.809 0.293 1.01 0.293 0.496 0 0.462 0.657-0.125 2.36-1.74 5.04-5.48 9.49-11.4 13.5-5.61 3.84-12.9 6.24-19.8 6.53-3.42 0.142-5.42-0.255-7.12-1.42-1.31-0.895-1.35-1.68-0.149-2.49 1.32-0.887 3.06-1.3 6.69-1.59 11.3-0.906 19.8-5 26-12.5 0.973-1.18 0.994-1.23 0.293-0.773-7.69 5.05-16.1 8.74-22.4 9.86-1.91 0.338-3.32 0.409-6.19 0.31-3.94-0.136-6.29-0.61-9.02-1.81-1.51-0.666-1.7-1.01-1.59-2.85l0.0641-1.07-20.7-0.127c-11.4-0.0701-23.4-0.127-26.6-0.127-7.54 0.001-14.9 0.486-21.1 1.4-2.94 0.43-3.46 0.813-4.44 3.31-0.663 1.68-0.793 4.93-0.385 9.62 0.254 2.92-0.0553 4.64-0.949 5.26-0.325 0.228-1.13 0.368-2.12 0.368-1.89 0-1.89 0.001-2.31-3.42-0.615-5.02-0.236-10.5 0.984-14.1 0.489-1.47 0.698-1.75 1.95-2.65 2.64-1.89 7.05-3.15 13.2-3.78 1.51-0.155 7.82-0.266 14.7-0.259 6.6 0.007 18.4-0.0621 26.3-0.153 9.14-0.106 16.8-0.063 21.3 0.119 3.88 0.156 7.1 0.235 7.16 0.175 0.251-0.251-2.7-1.67-4.47-2.15-3.48-0.938-5.07-1.04-20.4-1.27-8.34-0.128-21.9-0.366-30.1-0.529-22.6-0.45-24.7-0.443-26.7 0.0898-3.43 0.942-6.43 2.39-8.97 4.32-2.57 1.95-5.53 5.27-12.6 14.1l-7.6 9.54h-2.64c-2.23 0-2.62-0.0584-2.5-0.374z"/>
<g transform="matrix(.841 0 0 -.841 210 393)">
<g fill-opacity=".0196">
<path d="m172 231h26.5v-26.5h-26.5v26.5z"/>
<path d="m172 202h26.5v-26.5h-26.5v26.5z"/>
<path d="m143 202h26.5v-26.5h-26.5v26.5z"/>
<path d="m113 202h26.5v-26.5h-26.5v26.5z"/>
<path d="m172 172h26.5v-26.5h-26.5v26.5z"/>
<path d="m143 172h26.5v-26.5h-26.5v26.5z"/>
</g>
<g fill-opacity=".0314">
<path d="m134 242h26.5v-26.5h-26.5v26.5z"/>
<path d="m104 242h26.5v-26.5h-26.5v26.5z"/>
<path d="m74.3 242h26.5v-26.5h-26.5v26.5z"/>
<path d="m74.3 212h26.5v-26.5h-26.5v26.5z"/>
<path d="m113 172h26.5v-26.5h-26.5v26.5z"/>
</g>
<g fill-opacity=".0196">
<g>
<path d="m83.1 172h26.5v-26.5h-26.5v26.5z"/>
<path d="m172 142h26.5v-26.5h-26.5v26.5z"/>
<path d="m143 142h26.5v-26.5h-26.5v26.5z"/>
<path d="m113 142h26.5v-26.5h-26.5v26.5z"/>
<path d="m83.1 142h26.5v-26.5h-26.5v26.5z"/>
</g>
<g transform="translate(40.9 98.8)">
<path d="m0 0h23.4v-7.96h-13.9v-6.85h12v-7.97h-12v-13.2h-9.5v36z" fill-opacity=".0196" fill="#fff"/>
</g>
<g clip-path="url(#b)">
<g transform="translate(93.2 81)">
<path d="m0 0c0 6.53-2.65 10.3-6.96 10.3s-6.96-3.75-6.96-10.3c0-6.52 2.65-10.6 6.96-10.6 4.29 0 6.94 4.08 6.94 10.6m-23.7 0c0 11.8 6.75 18.5 16.7 18.5s16.7-6.69 16.7-18.5-6.75-18.8-16.7-18.8c-9.96 0-16.7 6.97-16.7 18.8" fill-opacity=".0196" fill="#fff"/>
</g>
<g transform="translate(133 81)">
<path d="m0 0c0 6.53-2.65 10.3-6.97 10.3s-6.97-3.75-6.97-10.3c0-6.52 2.65-10.6 6.97-10.6 4.28 0 6.93 4.08 6.93 10.6m-23.7 0c0 11.8 6.75 18.5 16.7 18.5s16.7-6.69 16.7-18.5-6.75-18.8-16.7-18.8c-9.96 0-16.7 6.97-16.7 18.8" fill-opacity=".0196" fill="#fff"/>
</g>
<g transform="translate(161 66.5)">
<path d="m0 0c6.25 0 9.9 2.27 9.9 7.2 0 4.5-3.55 6.5-9.9 6.5h-6.31v-13.7h6.31zm-0.941 17.1c6.18 0 8.73 2.21 8.73 6.25 0 3.92-2.87 5.58-8.51 5.58h-5.58v-11.8h5.37zm-9.96 15.5h10.8c7.36 0 12.4-2.49 12.4-8.85 0-3.6-2.04-6.8-6.3-7.91v-0.223c5.31-0.833 8.41-3.71 8.41-8.68 0-7.13-5.64-10.6-13.8-10.6h-11.6v36.3z" fill-opacity=".0314" fill="#fff"/>
</g>
<g transform="translate(200 77.6)">
<path d="m0 0-1.72 5.53c-1.33 4.04-2.49 8.02-3.65 12.2h-0.225c-1.09-4.2-2.26-8.13-3.58-12.2l-1.72-5.5h10.9zm1.16-3.71h-13.2l-3.48-11.1h-4.7l12.3 36.3h5.2l12.3-36.3h-4.93l-3.42 11.1z" fill-opacity=".0314" fill="#fff"/>
</g>
<g transform="translate(221 81.9)">
<path d="m0 0h6.09c5.64 0 8.79 2.33 8.79 7.02 0 4.76-3.15 6.47-8.79 6.47h-6.09v-13.5zm15.3-19.1-8.74 15.3h-6.58v-15.3h-4.59v36.3h11.3c7.41 0 12.7-2.66 12.7-10.2 0-5.64-3.21-9.07-8.13-10.3l9.18-15.8h-5.2z" fill-opacity=".0314" fill="#fff"/>
</g>
<g transform="translate(83.1 53)">
<path d="m0 0h1.34v-4.43h4.91v4.43h1.36v-10.6h-1.36v4.98h-4.91v-4.98h-1.34v10.6z" fill-opacity=".0196" fill="#fff"/>
</g>
<g transform="translate(100 46.7)">
<path d="m0 0-0.499 1.61c-0.386 1.18-0.721 2.34-1.06 3.57h-0.065c-0.33-1.23-0.67-2.39-1.06-3.57l-0.49-1.61h3.17zm0.34-1.08h-3.85l-1.02-3.22h-1.37l3.58 10.6h1.52l3.58-10.6h-1.44l-1 3.22z" fill-opacity=".0196" fill="#fff"/>
</g>
<g transform="translate(110 53.2)">
<path d="m0 0c1.28 0 2.27-0.612 2.89-1.31l-0.76-0.85c-0.548 0.595-1.22 0.98-2.11 0.98-2.02 0-3.34-1.64-3.34-4.27 0-2.66 1.27-4.34 3.27-4.34 1.01 0 1.76 0.42 2.43 1.18l0.759-0.825c-0.84-0.965-1.87-1.53-3.23-1.53-2.66 0-4.62 2.03-4.62 5.48 0 3.41 2 5.49 4.71 5.49" fill-opacity=".0196" fill="#fff"/>
</g>
<g transform="translate(117 53)">
<path d="m0 0h1.34v-5.31h0.048l4.4 5.31h1.51l-3.3-4.03 3.82-6.54h-1.5l-3.16 5.5-1.82-2.14v-3.35h-1.34v10.6z" fill-opacity=".0196" fill="#fff"/>
</g>
<g transform="translate(129 53)">
<path d="m0 0h6.09v-1.13h-4.75v-3.32h4.01v-1.14h-4.01v-3.84h4.91v-1.14h-6.25v10.6z" fill-opacity=".0196" fill="#fff"/>
</g>
<g transform="translate(140 48)">
<path d="m0 0h1.77c1.64 0 2.56 0.678 2.56 2.05 0 1.39-0.917 1.89-2.56 1.89l-1.77-0.01v-3.93zm4.46-5.56-2.54 4.47h-1.92v-4.47h-1.34v10.6h3.31c2.16 0 3.71-0.774 3.71-2.97 0-1.64-0.934-2.64-2.37-3l2.68-4.61h-1.52z" fill-opacity=".0196" fill="#fff"/>
</g>
<g transform="translate(150 44.7)">
<path d="m0 0c0.759-0.791 1.82-1.32 2.92-1.32 1.39 0 2.2 0.695 2.2 1.72 0 1.08-0.758 1.42-1.75 1.87l-1.51 0.66c-1 0.419-2.14 1.18-2.14 2.72 0 1.61 1.4 2.8 3.32 2.8 1.26 0 2.37-0.532 3.12-1.31l-0.73-0.86c-0.64 0.62-1.41 1-2.4 1-1.17 0-1.97-0.59-1.97-1.54 0-1.02 0.92-1.41 1.76-1.76l1.5-0.65c1.22-0.53 2.18-1.25 2.18-2.82 0-1.67-1.38-3.01-3.6-3.01-1.48 0-2.79 0.61-3.71 1.56l0.81 0.94z" fill-opacity=".0196" fill="#fff"/>
</g>
<g transform="translate(164 47.7)">
<path d="m0 0c1.84 0 2.72 0.678 2.72 2.18 0 1.53-0.9 2.03-2.72 2.03h-1.74v-4.21h1.74zm-3.08 5.29h3.24c2.34 0 3.9-0.791 3.9-3.11 0-2.23-1.58-3.27-3.9-3.27h-1.9v-4.19h-1.34v10.6z" fill-opacity=".0196" fill="#fff"/>
</g>
<g transform="translate(176 46.7)">
<path d="m0 0-0.499 1.61c-0.387 1.18-0.731 2.34-1.06 3.57h-0.064c-0.33-1.23-0.67-2.39-1.06-3.57l-0.5-1.61h3.18zm0.338-1.08h-3.85l-1.02-3.22h-1.37l3.58 10.6h1.51l3.58-10.6h-1.43l-1 3.22z" fill-opacity=".0196" fill="#fff"/>
</g>
<g transform="translate(186 53.2)">
<path d="m0 0c1.28 0 2.27-0.612 2.89-1.31l-0.76-0.85c-0.547 0.595-1.22 0.98-2.11 0.98-2.02 0-3.34-1.64-3.34-4.27 0-2.66 1.27-4.34 3.27-4.34 1.01 0 1.76 0.42 2.44 1.18l0.757-0.825c-0.838-0.965-1.87-1.53-3.23-1.53-2.66 0-4.62 2.03-4.62 5.48-0.01 3.41 1.99 5.49 4.7 5.49" fill-opacity=".0196" fill="#fff"/>
</g>
<g transform="translate(193 53)">
<path d="m0 0h6.09v-1.13h-4.75v-3.32h4.01v-1.14h-4.01v-3.84h4.92v-1.14h-6.26v10.6z" fill-opacity=".0196" fill="#fff"/>
</g>
</g>
</g>
</g>
<path d="m266 544c-4.31-2.09-6.77-6.29-6.12-10.5 0.712-4.6 3.15-7.54 8.01-9.68 2.32-1.02 3.46-1.24 6.26-1.24 1.88-0.00018 3.43-0.156 3.43-0.346s-0.744-0.591-1.65-0.892c-0.91-0.301-1.64-0.777-1.63-1.06 0.0155-0.282 2.84-4.3 6.27-8.94l6.24-8.43 11-0.116c6.03-0.0638 11-0.0293 11 0.0768s-1.54 2.33-3.43 4.95c-6.36 8.83-11.5 16.2-11.6 16.8-0.0942 0.356 0.115 0.483 0.548 0.331 1.37-0.481 3.5 1.01 4.35 3.05 1.48 3.54 0.0613 7.88-3.41 10.4-3.07 2.26-5.81 3.3-9.19 3.53-4.03 0.265-5.14-0.538-5.14-3.74 0-1.32-0.258-2.3-0.688-2.63-0.994-0.754-1.67-0.174-1.67 1.43 0 2.34-2.01 4.42-5.94 6.14-3.31 1.45-4.9 1.65-6.59 0.833zm83.6-0.59c-1.04-0.439-2.4-1.3-3.02-1.92l-1.14-1.13 1.25-1.65c1.19-1.56 1.59-2.69 0.974-2.69-0.154 0-1.16 0.687-2.23 1.53-4.47 3.5-10.6 5.11-15.1 3.93-3.83-1.02-6.7-2.88-7.88-5.11-2.02-3.82-0.954-7.29 3.58-11.7 2.64-2.54 2.68-2.62 1.31-2.4-0.78 0.129-1.84 0.345-2.36 0.481-0.813 0.213-1.83-1.11-7.32-9.52-3.51-5.37-6.45-9.94-6.54-10.1-0.088-0.212 5.26-0.38 12.1-0.38h12.3l4.43 5.51c2.44 3.03 5.44 6.82 6.68 8.43 1.24 1.6 2.5 2.92 2.81 2.92 1.46 0 6.76 2.79 9.04 4.76 3.47 3 4.71 5.66 4.72 10.1 0.009 3.77-0.439 4.9-2.66 6.66-3.81 3.03-7.4 3.76-11 2.24zm-132-1.96c-6.56-2.47-12.1-8.17-13.9-14.3-0.89-3.06-0.804-4.09 0.577-6.95 1.71-3.53 3.52-5.45 7.31-7.76 3.08-1.87 3.88-2.84 2.85-3.42-0.24-0.136-1.23 0.181-2.2 0.704l-1.76 0.951-1.53-1.67c-1.84-2.01-2.58-4.06-2.58-7.23 0-6.66 4.25-11.3 12.7-14 4.91-1.53 7.34-1.73 10.8-0.911 4.69 1.1 7.33 3.1 9.36 7.09 1.01 1.98 1.14 2.78 1 5.9l-0.165 3.61 6.14-0.171c20.4-0.567 27.7-0.552 27.6 0.0555-0.164 0.679-13.3 18.8-14.8 20.4-0.932 0.995-1.08 1.01-10.9 1.05l-9.91 0.0373-2.08-2.01c-2.46-2.38-3.63-2.1-1.76 0.423 1.5 2.02 2.16 4.13 2.16 6.95 0.002 1.74-0.341 2.71-1.68 4.75-2.17 3.31-3.67 4.74-6.58 6.28-3.08 1.63-6.79 1.7-10.8 0.21zm176-3.74c-4.53-0.717-8.71-3.32-10.6-6.62-0.863-1.48-1.04-2.52-1.09-6.31-0.0285-2.5-0.241-4.62-0.473-4.71-0.402-0.169-1.76 1.93-2.27 3.53-0.219 0.678-1 0.756-7.56 0.756h-7.31l-8.32-10.9-8.32-10.9 11.5-0.265c6.32-0.146 13.8-0.291 16.6-0.324 4.86-0.057 5.08-0.1 5.28-1.03 1.08-5.1 1.52-6.49 2.8-8.7 1.9-3.29 5.09-6.18 8.36-7.57 2.26-0.965 3.24-1.11 7.56-1.12 4.59-0.007 5.19 0.0932 8.09 1.35 4.03 1.75 6.69 3.96 8.25 6.9 1.14 2.13 1.23 2.68 1.03 6.12-0.277 4.65-1.45 7.59-4.9 12.3-1.4 1.91-2.55 3.65-2.55 3.85 0 0.698 0.775 0.359 2.13-0.93 0.747-0.713 1.61-1.3 1.92-1.3 0.826 0 3.97 3.32 4.74 5 0.39 0.853 0.663 2.94 0.663 5.07 0 3.16-0.18 3.95-1.43 6.24-1.64 3-4.55 5.64-7.86 7.15-4.71 2.14-11.5 3.17-16.1 2.44zm-95.7-38.4c-1.36-0.632-2.09-0.738-2.97-0.432-2.59 0.899-10.9 0.17-13.6-1.19-0.697-0.357-1.46-0.227-3.39 0.583-1.75 0.733-2.89 0.956-3.83 0.75-1.83-0.402-3.97-1.4-5.19-2.42-1.02-0.852-1.03-0.852-2.43 0.0988-1.28 0.865-1.58 0.903-3.23 0.414-2.69-0.796-5.62-2.46-7.16-4.06-1.06-1.1-1.49-2.16-1.94-4.73-0.523-2.97-0.725-3.38-1.95-3.95-9.7-4.59-28.3-20.7-36-31.2-5.7-7.78-10.6-17.8-15-30.6-0.815-2.38-1.69-4.9-1.95-5.62-1.42-3.88-3.31-16.6-3.92-26.4-0.357-5.7-0.55-10.5-0.429-10.6 0.121-0.113 6.39-0.281 13.9-0.373l13.7-0.168-0.321 4.91c-0.353 5.41 0.215 11.4 1.73 18.3 1 4.54 5.74 18.2 6.75 19.5 0.501 0.627 0.721-0.0188 1.42-4.16 1.04-6.2 2.55-10.6 5.73-16.6 5.22-9.89 12.5-17.2 23.1-23.1 13.2-7.39 31.6-10.4 45.4-7.36 12.6 2.77 22.5 8.24 34 18.8 9 8.24 14.3 16.1 18 26.6 0.994 2.84 2.01 5.1 2.26 5.03 0.25-0.073 0.7-1.29 0.999-2.69 0.3-1.41 0.89-3.71 1.31-5.12 2.48-8.26 3.08-22.2 1.29-30-0.563-2.47-0.911-4.59-0.772-4.71 0.139-0.127 12.4-0.324 27.2-0.439l26.9-0.209v4.06c-0.003 20.1-7.49 44.8-18.9 62.3-8.91 13.7-18.2 24.2-28.3 31.9-7.46 5.7-12.1 8.18-25.7 13.7-5.06 2.08-5.55 2.38-5.85 3.63-0.601 2.5-1.73 4.12-3.18 4.59-2.3 0.734-6.3 0.543-8.32-0.399l-1.82-0.848-1.28 1.01c-2.17 1.7-7.19 1.87-10.5 0.347-1.39-0.639-1.58-0.64-2.36-0.006-2.2 1.79-10.4 2.27-13.6 0.804zm10.9-3.65c1.15-0.905 1.33-1.39 1.49-4.07 0.257-4.16-1.25-8.43-3.39-9.63-1.85-1.03-4.29-1.06-6.45-0.0742l-1.65 0.756-0.236 6.57-0.236 6.57 1.65 0.404c0.91 0.222 2.97 0.424 4.58 0.449 2.44 0.0373 3.14-0.125 4.23-0.984zm11.9 0.139c1.05-0.336 1.51-0.809 1.72-1.78 0.407-1.86 0.348-8.24-0.0814-8.86-0.936-1.35-6.58-1.98-7.6-0.851-0.295 0.325-0.579 2.59-0.646 5.14-0.102 3.93 0.003 4.69 0.754 5.45 1.27 1.28 3.56 1.64 5.85 0.906zm-43.5-0.624c2.17-1.39 3.09-7.93 1.37-9.68-1.38-1.4-4.15-1.93-6.11-1.18-2 0.766-2.15 0.978-2.69 4.03-0.667 3.75 0.0375 5.6 2.52 6.64 2.41 0.999 3.58 1.04 4.91 0.192zm17.1-1.46c0.513-1.48 0.564-2.98 0.236-6.91-0.412-4.93-0.441-5.02-1.71-5.42-1.02-0.325-1.8-0.192-3.73 0.638-3.95 1.69-4.93 2.79-5.59 6.25-0.318 1.66-0.506 3.78-0.416 4.72 0.155 1.62 0.271 1.74 2.29 2.24 1.17 0.289 3.51 0.491 5.2 0.45l3.07-0.0745zm40.1 1.32c2.07-1.2 1.91-9.81-0.207-11-0.227-0.128-1.79 0.188-3.47 0.703-3.55 1.09-4.25 1.97-4.19 5.26 0.0563 3.03 0.515 4.23 1.86 4.85 1.3 0.603 5.09 0.722 6.01 0.189zm-68.8-2.56c0.769-2.11 0.832-6.83 0.0992-7.5-0.311-0.284-2.15-0.61-4.09-0.724-3.26-0.191-3.56-0.137-4.08 0.744-0.563 0.963-0.366 3.32 0.492 5.86 0.452 1.34 1.65 2.25 3.73 2.83 2.55 0.708 3.22 0.496 3.84-1.21zm31.8-22.3c0.135-0.772 0.198-2.18 0.14-3.13-0.101-1.65-0.0423-1.73 1.3-1.73 1.28 0 1.44 0.168 1.81 1.86 0.759 3.51 1.5 2.11 4.91-9.21l1.17-3.89-0.775-6.48c-0.426-3.56-1.38-9.79-2.13-13.8-0.745-4.04-1.53-8.5-1.74-9.91-0.421-2.78-1.28-3.6-1.74-1.67-0.16 0.664-0.505 5.19-0.769 10.1-0.518 9.57-0.662 10.5-1.65 10.1-1.19-0.419-1.72-2.91-2.08-9.77-0.195-3.74-0.511-6.94-0.702-7.12-0.658-0.602-1.23 0.963-1.23 3.4-0.004 1.34-0.745 6.01-1.65 10.4-2.11 10.2-2.4 13.2-1.67 17.2 1.06 5.81 4.83 15.1 6.13 15.1 0.244 0 0.555-0.632 0.69-1.4zm-55.5-1.88c0-0.35-0.526-1.59-1.17-2.75-0.643-1.16-1.31-2.9-1.48-3.87s-0.469-1.76-0.665-1.76c-0.741 0-0.999-7.33-0.438-12.5 0.543-4.96 0.515-5.48-0.496-9.47-1.02-4.02-2.9-8.19-3.98-8.85-1.14-0.689-1.18 0.51-0.0889 2.76 1.81 3.74 2.19 6.77 2.16 17.2-0.0291 9.27 0.0253 9.89 1.12 12.6 1.97 4.95 5.05 8.94 5.05 6.53zm111-0.137c3.82-2.75 5.26-9.97 4.22-21.2-0.318-3.44-0.806-6.51-1.08-6.81-0.894-0.985-0.191-8.32 1.06-11.1 0.839-1.85 0.971-2.55 0.553-2.94-0.766-0.7-2.83 3.52-3.45 7.04-0.517 2.94-0.386 4.57 1.07 13.3 1.68 10.1 0.622 16.3-3.43 19.9-1.25 1.11-2.14 2.14-1.98 2.29 0.556 0.508 1.9 0.261 3.04-0.559zm-70-18.9c0.891-0.416 2.03-1.27 2.54-1.9 1.94-2.42 4.92-18.8 4.47-24.6-0.238-3.05-1.53-5.83-4.45-9.55-2.3-2.92-2.76-3.09-7.12-2.58-3.83 0.445-4.46 0.622-15.9 4.48-12.2 4.09-13.2 4.71-14.4 8.95-0.708 2.42-0.191 11.8 0.741 13.4 1.68 2.96 6.18 5.29 13.1 6.78 2.45 0.526 5.44 1.55 7.32 2.52 6.37 3.26 10.5 3.98 13.8 2.44zm41.8-2.5c1.04-0.394 3.91-1.75 6.38-3 2.47-1.26 5.98-2.69 7.8-3.2 3.69-1.02 7.36-3.26 8.75-5.35 0.506-0.761 1.27-2.82 1.7-4.58 1.53-6.28-0.129-11.4-5.03-15.6-4.3-3.7-6.68-4.7-12.4-5.22-6.96-0.638-11-0.19-15.1 1.67-4.03 1.84-5.88 3.49-7.72 6.86-1.22 2.24-1.4 3.03-1.39 6.23 0.005 3.46 0.175 4.08 2.97 10.7 5.54 13.2 5.23 12.8 9.26 12.4 1.56-0.133 3.69-0.564 4.72-0.959z"/>
<path d="m614 538c-4.94-3.33-7.53-8.72-8.02-16.6-0.359-5.9 0.23-10.3 2.77-20.9 2.27-9.39 2.57-11.3 2.71-16.8l0.126-4.84-0.701-1.29c-0.386-0.709-0.768-1.28-0.851-1.27-0.255 0.028-3.34 3.69-5.22 6.19-4.09 5.45-6.42 10.8-6.84 15.8l-0.164 1.94-1.32 0.274c-2.66 0.552-2.72 0.534-3.1-0.885-0.501-1.9-0.265-6.63 0.436-8.72 0.95-2.83 3.08-6.78 6.13-11.4 3.38-5.1 5.59-9.13 6.4-11.7 0.665-2.1 0.744-2.14 3.9-2.37l2.19-0.155 0.782 1.99c1.86 4.75 2.55 8.08 2.77 13.5 0.255 6.18-0.397 11.7-2.97 25.1-2.23 11.7-2.2 11.4-1.54 15 1.15 6.26 2.72 9.89 5.67 13.1 0.712 0.767 0.734 0.862 0.556 2.4-0.102 0.881-0.282 1.86-0.4 2.17-0.339 0.895-1.39 0.706-3.32-0.594zm-22.6-25-1.1-0.0982 0.136-1.01c0.208-1.55 1.21-2.85 2.8-3.63 1.24-0.606 1.81-0.702 5.38-0.9 2.2-0.122 4.42-0.226 4.94-0.231l0.947-0.01v2.4c0 2.83 0.725 2.44-5.83 3.16-4.61 0.504-5.06 0.524-7.28 0.326zm22.8-3.24c-0.209-0.833 0.059-2.49 0.559-3.46 0.599-1.16 2.29-2.89 4.39-4.49 2.17-1.65 4.04-3.58 4.67-4.79 1.35-2.61 2.27-11.3 1.67-15.7-0.815-6.12-3.98-12.9-8.11-17.4-0.695-0.76-1.26-1.49-1.26-1.63 0-0.137 1.21-1.37 2.69-2.74 1.9-1.76 2.73-2.38 2.82-2.12 0.334 1.05 4.55 8.92 5.5 10.3 2.05 2.9 4.77 4.96 7.44 5.65 0.623 0.16 1.56 0.456 2.09 0.657 1.38 0.53 3.27 0.452 6.45-0.266 4.76-1.07 6.27-0.769 7.36 1.48 0.904 1.87 0.723 2.2-1.64 2.99-4.15 1.39-9.62 1.45-15.1 0.166-1.69-0.396-2.31-0.453-2.53-0.233-0.331 0.331-0.349 2.51-0.05 6.08 0.168 2 0.11 2.87-0.348 5.26-1.39 7.26-4.11 12.6-8.57 16.7-1.76 1.65-2.4 2.08-3.56 2.41-0.775 0.223-2.06 0.733-2.86 1.13l-1.45 0.726-0.162-0.645zm-14.3-44.6c-0.38-0.114-1.09-0.455-1.58-0.757-0.729-0.45-0.888-0.7-0.888-1.39v-0.844l1.71-0.167c4.26-0.417 7.7-1.82 11.1-4.54 3.61-2.89 6.75-7.06 11.8-15.8 1.64-2.8 2.67-4.32 2.95-4.33 0.511-0.0106 1.67 1.32 1.88 2.15 0.338 1.35-1.6 7.83-3.46 11.5-3.58 7.18-9.59 12.1-17 13.8-2.07 0.497-5.25 0.613-6.5 0.237zm-126-3.54-40.9-0.128-0.823-0.587c-1.03-0.738-2.62-3.95-3.32-6.74-1.21-4.82-1.92-10.1-2.31-17.3-0.146-2.71-0.503-8.57-0.792-13-0.574-8.83-0.533-14.4 0.169-22.6 1.06-12.5 2.98-19.9 5.57-21.6 0.711-0.466 8.17-0.92 32.4-1.97 22.8-0.988 47.4-0.176 61.2 2.02 3.12 0.495 3.69 0.934 5.19 3.97 1.51 3.07 2.38 6.56 2.61 10.5 0.246 4.27 0.145 5.28-0.543 5.47-0.88 0.236-3.7 0.174-4.19-0.0922-0.72-0.385-1.24-2.02-1.66-5.24-0.89-6.84-2.1-8.45-7.27-9.67-5.77-1.36-14.6-1.87-32-1.86-17 0.0153-30.1 0.538-43.3 1.72-3.25 0.293-4.18 0.468-5.19 0.98-2.61 1.32-4.57 4.42-5.76 9.13-0.917 3.61-1.1 5.98-1.37 17.6-0.391 16.7 0.244 24.7 2.62 33.4 1.44 5.22 2.63 6.99 5.74 8.5 3.45 1.68 2.1 1.62 36.4 1.61 29.7-0.009 39.5-0.195 43.3-0.822 3.59-0.584 5.64-4.3 6.82-12.3 0.55-3.75 0.616-3.98 1.35-4.63 1.48-1.32 3.43-1.17 4.25 0.349 0.743 1.36 0.588 5.76-0.364 10.3-1.23 5.86-2.35 9.83-3.01 10.6-1.28 1.52-5.04 2.42-10.7 2.58-1.74 0.0469-21.6 0.0274-44.1-0.0432zm115-4.15c-1.65-0.407-2.64-0.941-3.83-2.06l-0.97-0.915 0.591-0.479c0.916-0.741 2.89-1.24 6.48-1.63 1.81-0.196 3.8-0.522 4.42-0.725 6.87-2.23 11.2-4.98 16.7-10.7 2.72-2.81 8.31-9.75 8.73-10.8 0.084-0.219 0.539-0.345 1.25-0.345 1.3 0 1.3-0.15 0.0527 3.66-2.82 8.59-8.64 15.7-16.9 20.7-1.87 1.13-2.22 1.24-7.93 2.43-6.42 1.34-6.65 1.36-8.56 0.89zm-122-5.33c0.243-0.634 9.51-13.5 11.6-16.1 4.25-5.28 10.4-11.8 12.8-13.4 1.75-1.21 4.83-2.21 7.85-2.53 3.59-0.387 33.1-0.373 56 0.0266 19.4 0.339 18.9 0.295 24.4 2.05 1.71 0.543 3.17 0.939 3.22 0.881 0.0587-0.0587-0.203-0.513-0.582-1.01-0.891-1.17-2.87-2.47-4.94-3.24-3.46-1.3-4.63-1.38-24.4-1.67-17.8-0.263-25.8-0.452-47.1-1.11l-9.98-0.309-1.48-0.739c-2.61-1.3-4.7-3.6-15-16.5-5.46-6.85-9.94-12.5-9.94-12.6 0-0.254 5.68 0.209 6.04 0.493 0.198 0.156 2.85 3.62 5.9 7.69 6.56 8.78 8.52 11.2 11.5 14 2.99 2.81 4.04 3.51 5.91 3.9 3.6 0.757 13.4 0.934 35.3 0.638 25.4-0.344 33.9-0.161 37.8 0.813 3.16 0.778 7.05 2.13 9.47 3.29 1.02 0.491 1.91 0.848 1.96 0.794 0.236-0.236-0.754-1.65-1.92-2.74-3.67-3.43-9.12-5.56-16-6.24-2.74-0.272-18.4-0.397-28.7-0.229-3.2 0.0525-9.56 0.0929-14.1 0.0897-7.49-0.005-8.65-0.0628-11.5-0.566-3.7-0.667-7.85-2-10.3-3.3-1.46-0.782-1.86-1.14-2.32-2.07-1.33-2.69-1.47-10-0.302-15.8l0.265-1.33h2c1.1 0 2.02 0.0284 2.04 0.0632 0.0221 0.0348 0.112 2.85 0.2 6.25 0.175 6.78 0.259 7.2 1.79 8.94 1.11 1.27 1.82 1.59 4.18 1.91 5 0.672 8.83 0.783 27.1 0.778 11.2-0.003 20.5 0.105 22.4 0.259 8.55 0.723 15.4 2.43 21.4 5.33 2.89 1.41 3.21 1.64 5.27 3.83 3.88 4.12 7.63 9.62 9.78 14.3l0.979 2.15-0.0915-1.54c-0.204-3.43-5.26-11.8-13.2-21.8-1.47-1.86-2.68-3.48-2.68-3.59 0-0.363 1.12-0.983 1.77-0.983 1.15 0 4.13 2.01 5.48 3.7 6.9 8.63 11.2 15.7 13.2 21.6 0.45 1.32 1.09 2.68 1.41 3.03l0.596 0.626 0.764-0.764 0.764-0.764-0.654-2.26c-1.46-5.05-3.05-8.18-9.19-18-4.68-7.52-4.71-7.6-2.67-7.6 0.886 0 1.43 0.232 2.94 1.26 1.02 0.693 2.03 1.4 2.25 1.58 0.646 0.513 5.71 9.09 7.46 12.7 0.887 1.8 2.02 4.59 2.52 6.21 1.32 4.28 1.33 4.28 2.76 3.02 0.92-0.808 0.936-0.852 0.789-2.22-0.343-3.2-2.18-8.95-4.36-13.6-0.608-1.31-1.11-2.53-1.11-2.71 0-0.186 0.329-0.707 0.732-1.16 0.704-0.788 0.758-0.805 1.45-0.446 1.17 0.607 3.19 2.81 4.05 4.43 0.44 0.828 1.45 3.69 2.25 6.37 0.796 2.68 1.54 4.86 1.65 4.86 0.111 0 0.578-0.472 1.04-1.05 2.12-2.66 2.89-3.03 3.95-1.9 0.686 0.73 0.698 1.68 0.044 3.58-0.675 1.96-0.649 2.51 0.138 2.87 0.354 0.161 0.809 0.293 1.01 0.293 0.496 0 0.462 0.657-0.125 2.36-1.74 5.04-5.48 9.49-11.4 13.5-5.61 3.84-12.9 6.24-19.8 6.53-3.42 0.142-5.42-0.255-7.12-1.42-1.31-0.895-1.35-1.68-0.149-2.49 1.32-0.887 3.06-1.3 6.69-1.59 11.3-0.906 19.8-5 26-12.5 0.973-1.18 0.994-1.23 0.293-0.773-7.69 5.05-16.1 8.74-22.4 9.86-1.91 0.338-3.32 0.409-6.19 0.31-3.94-0.136-6.29-0.61-9.02-1.81-1.51-0.666-1.7-1.01-1.59-2.85l0.0641-1.07-20.7-0.127c-11.4-0.0701-23.4-0.127-26.6-0.127-7.54 0.001-14.9 0.486-21.1 1.4-2.94 0.43-3.46 0.813-4.44 3.31-0.663 1.68-0.793 4.93-0.385 9.62 0.254 2.92-0.0553 4.64-0.949 5.26-0.325 0.228-1.13 0.368-2.12 0.368-1.89 0-1.89 0.001-2.31-3.42-0.615-5.02-0.236-10.5 0.984-14.1 0.489-1.47 0.698-1.75 1.95-2.65 2.64-1.89 7.05-3.15 13.2-3.78 1.51-0.155 7.82-0.266 14.7-0.259 6.6 0.007 18.4-0.0621 26.3-0.153 9.14-0.106 16.8-0.063 21.3 0.119 3.88 0.156 7.1 0.235 7.16 0.175 0.251-0.251-2.7-1.67-4.47-2.15-3.48-0.938-5.07-1.04-20.4-1.27-8.34-0.128-21.9-0.366-30.1-0.529-22.6-0.45-24.7-0.443-26.7 0.0898-3.43 0.942-6.43 2.39-8.97 4.32-2.57 1.95-5.53 5.27-12.6 14.1l-7.6 9.54h-2.64c-2.23 0-2.62-0.0584-2.5-0.374z"/>
<g transform="matrix(.841 0 0 -.841 -22.6 575)">
<g fill-opacity=".0196">
<path d="m172 231h26.5v-26.5h-26.5v26.5z"/>
<path d="m172 202h26.5v-26.5h-26.5v26.5z"/>
<path d="m143 202h26.5v-26.5h-26.5v26.5z"/>
<path d="m113 202h26.5v-26.5h-26.5v26.5z"/>
<path d="m172 172h26.5v-26.5h-26.5v26.5z"/>
<path d="m143 172h26.5v-26.5h-26.5v26.5z"/>
</g>
<g fill-opacity=".0314">
<path d="m134 242h26.5v-26.5h-26.5v26.5z"/>
<path d="m104 242h26.5v-26.5h-26.5v26.5z"/>
<path d="m74.3 242h26.5v-26.5h-26.5v26.5z"/>
<path d="m74.3 212h26.5v-26.5h-26.5v26.5z"/>
<path d="m113 172h26.5v-26.5h-26.5v26.5z"/>
</g>
<g fill-opacity=".0196">
<g>
<path d="m83.1 172h26.5v-26.5h-26.5v26.5z"/>
<path d="m172 142h26.5v-26.5h-26.5v26.5z"/>
<path d="m143 142h26.5v-26.5h-26.5v26.5z"/>
<path d="m113 142h26.5v-26.5h-26.5v26.5z"/>
<path d="m83.1 142h26.5v-26.5h-26.5v26.5z"/>
</g>
<g transform="translate(40.9 98.8)">
<path d="m0 0h23.4v-7.96h-13.9v-6.85h12v-7.97h-12v-13.2h-9.5v36z" fill-opacity=".0196" fill="#fff"/>
</g>
<g clip-path="url(#a)">
<g transform="translate(93.2 81)">
<path d="m0 0c0 6.53-2.65 10.3-6.96 10.3s-6.96-3.75-6.96-10.3c0-6.52 2.65-10.6 6.96-10.6 4.29 0 6.94 4.08 6.94 10.6m-23.7 0c0 11.8 6.75 18.5 16.7 18.5s16.7-6.69 16.7-18.5-6.75-18.8-16.7-18.8c-9.96 0-16.7 6.97-16.7 18.8" fill-opacity=".0196" fill="#fff"/>
</g>
<g transform="translate(133 81)">
<path d="m0 0c0 6.53-2.65 10.3-6.97 10.3s-6.97-3.75-6.97-10.3c0-6.52 2.65-10.6 6.97-10.6 4.28 0 6.93 4.08 6.93 10.6m-23.7 0c0 11.8 6.75 18.5 16.7 18.5s16.7-6.69 16.7-18.5-6.75-18.8-16.7-18.8c-9.96 0-16.7 6.97-16.7 18.8" fill-opacity=".0196" fill="#fff"/>
</g>
<g transform="translate(161 66.5)">
<path d="m0 0c6.25 0 9.9 2.27 9.9 7.2 0 4.5-3.55 6.5-9.9 6.5h-6.31v-13.7h6.31zm-0.941 17.1c6.18 0 8.73 2.21 8.73 6.25 0 3.92-2.87 5.58-8.51 5.58h-5.58v-11.8h5.37zm-9.96 15.5h10.8c7.36 0 12.4-2.49 12.4-8.85 0-3.6-2.04-6.8-6.3-7.91v-0.223c5.31-0.833 8.41-3.71 8.41-8.68 0-7.13-5.64-10.6-13.8-10.6h-11.6v36.3z" fill-opacity=".0314" fill="#fff"/>
</g>
<g transform="translate(200 77.6)">
<path d="m0 0-1.72 5.53c-1.33 4.04-2.49 8.02-3.65 12.2h-0.225c-1.09-4.2-2.26-8.13-3.58-12.2l-1.72-5.5h10.9zm1.16-3.71h-13.2l-3.48-11.1h-4.7l12.3 36.3h5.2l12.3-36.3h-4.93l-3.42 11.1z" fill-opacity=".0314" fill="#fff"/>
</g>
<g transform="translate(221 81.9)">
<path d="m0 0h6.09c5.64 0 8.79 2.33 8.79 7.02 0 4.76-3.15 6.47-8.79 6.47h-6.09v-13.5zm15.3-19.1-8.74 15.3h-6.58v-15.3h-4.59v36.3h11.3c7.41 0 12.7-2.66 12.7-10.2 0-5.64-3.21-9.07-8.13-10.3l9.18-15.8h-5.2z" fill-opacity=".0314" fill="#fff"/>
</g>
<g transform="translate(83.1 53)">
<path d="m0 0h1.34v-4.43h4.91v4.43h1.36v-10.6h-1.36v4.98h-4.91v-4.98h-1.34v10.6z" fill-opacity=".0196" fill="#fff"/>
</g>
<g transform="translate(100 46.7)">
<path d="m0 0-0.499 1.61c-0.386 1.18-0.721 2.34-1.06 3.57h-0.065c-0.33-1.23-0.67-2.39-1.06-3.57l-0.49-1.61h3.17zm0.34-1.08h-3.85l-1.02-3.22h-1.37l3.58 10.6h1.52l3.58-10.6h-1.44l-1 3.22z" fill-opacity=".0196" fill="#fff"/>
</g>
<g transform="translate(110 53.2)">
<path d="m0 0c1.28 0 2.27-0.612 2.89-1.31l-0.76-0.85c-0.548 0.595-1.22 0.98-2.11 0.98-2.02 0-3.34-1.64-3.34-4.27 0-2.66 1.27-4.34 3.27-4.34 1.01 0 1.76 0.42 2.43 1.18l0.759-0.825c-0.84-0.965-1.87-1.53-3.23-1.53-2.66 0-4.62 2.03-4.62 5.48 0 3.41 2 5.49 4.71 5.49" fill-opacity=".0196" fill="#fff"/>
</g>
<g transform="translate(117 53)">
<path d="m0 0h1.34v-5.31h0.048l4.4 5.31h1.51l-3.3-4.03 3.82-6.54h-1.5l-3.16 5.5-1.82-2.14v-3.35h-1.34v10.6z" fill-opacity=".0196" fill="#fff"/>
</g>
<g transform="translate(129 53)">
<path d="m0 0h6.09v-1.13h-4.75v-3.32h4.01v-1.14h-4.01v-3.84h4.91v-1.14h-6.25v10.6z" fill-opacity=".0196" fill="#fff"/>
</g>
<g transform="translate(140 48)">
<path d="m0 0h1.77c1.64 0 2.56 0.678 2.56 2.05 0 1.39-0.917 1.89-2.56 1.89l-1.77-0.01v-3.93zm4.46-5.56-2.54 4.47h-1.92v-4.47h-1.34v10.6h3.31c2.16 0 3.71-0.774 3.71-2.97 0-1.64-0.934-2.64-2.37-3l2.68-4.61h-1.52z" fill-opacity=".0196" fill="#fff"/>
</g>
<g transform="translate(150 44.7)">
<path d="m0 0c0.759-0.791 1.82-1.32 2.92-1.32 1.39 0 2.2 0.695 2.2 1.72 0 1.08-0.758 1.42-1.75 1.87l-1.51 0.66c-1 0.419-2.14 1.18-2.14 2.72 0 1.61 1.4 2.8 3.32 2.8 1.26 0 2.37-0.532 3.12-1.31l-0.73-0.86c-0.64 0.62-1.41 1-2.4 1-1.17 0-1.97-0.59-1.97-1.54 0-1.02 0.92-1.41 1.76-1.76l1.5-0.65c1.22-0.53 2.18-1.25 2.18-2.82 0-1.67-1.38-3.01-3.6-3.01-1.48 0-2.79 0.61-3.71 1.56l0.81 0.94z" fill-opacity=".0196" fill="#fff"/>
</g>
<g transform="translate(164 47.7)">
<path d="m0 0c1.84 0 2.72 0.678 2.72 2.18 0 1.53-0.9 2.03-2.72 2.03h-1.74v-4.21h1.74zm-3.08 5.29h3.24c2.34 0 3.9-0.791 3.9-3.11 0-2.23-1.58-3.27-3.9-3.27h-1.9v-4.19h-1.34v10.6z" fill-opacity=".0196" fill="#fff"/>
</g>
<g transform="translate(176 46.7)">
<path d="m0 0-0.499 1.61c-0.387 1.18-0.731 2.34-1.06 3.57h-0.064c-0.33-1.23-0.67-2.39-1.06-3.57l-0.5-1.61h3.18zm0.338-1.08h-3.85l-1.02-3.22h-1.37l3.58 10.6h1.51l3.58-10.6h-1.43l-1 3.22z" fill-opacity=".0196" fill="#fff"/>
</g>
<g transform="translate(186 53.2)">
<path d="m0 0c1.28 0 2.27-0.612 2.89-1.31l-0.76-0.85c-0.547 0.595-1.22 0.98-2.11 0.98-2.02 0-3.34-1.64-3.34-4.27 0-2.66 1.27-4.34 3.27-4.34 1.01 0 1.76 0.42 2.44 1.18l0.757-0.825c-0.838-0.965-1.87-1.53-3.23-1.53-2.66 0-4.62 2.03-4.62 5.48-0.01 3.41 1.99 5.49 4.7 5.49" fill-opacity=".0196" fill="#fff"/>
</g>
<g transform="translate(193 53)">
<path d="m0 0h6.09v-1.13h-4.75v-3.32h4.01v-1.14h-4.01v-3.84h4.92v-1.14h-6.26v10.6z" fill-opacity=".0196" fill="#fff"/>
</g>
</g>
</g>
</g>
</g>
</svg>
